<?xml version="1.0" encoding="UTF-8"?>
<svg version="1.1" xmlns="http://www.w3.org/2000/svg" width="500" height="302">
<path d="M0 0 C0.99644531 0.83273438 1.99289063 1.66546875 3.01953125 2.5234375 C10.74520625 9.19071607 17.09303638 16.69720499 23 25 C23.65871094 25.91910156 24.31742188 26.83820313 24.99609375 27.78515625 C29.08289925 34.11105785 31.50095392 40.81764942 33.8125 47.9375 C34.10286133 48.83082031 34.39322266 49.72414063 34.69238281 50.64453125 C38.32592688 62.48465123 39.31397309 74.03388869 39.1875 86.375 C39.1865332 88.20224609 39.1865332 88.20224609 39.18554688 90.06640625 C39.10788527 105.89211473 39.10788527 105.89211473 37 108 C34.34543807 108.10095564 31.71744824 108.13970998 29.0625 108.1328125 C28.267229 108.13376923 27.47195801 108.13472595 26.65258789 108.13571167 C24.9679354 108.13639343 23.28328029 108.13453943 21.59863281 108.13037109 C19.01100803 108.12502275 16.42355684 108.13031619 13.8359375 108.13671875 C12.20312461 108.13605797 10.57031184 108.1347768 8.9375 108.1328125 C7.76876343 108.13584885 7.76876343 108.13584885 6.57641602 108.13894653 C1.11495105 108.11495105 1.11495105 108.11495105 0 107 C0.37257652 103.33633089 0.86220183 99.75480492 1.5234375 96.1328125 C3.6555252 82.1169573 1.4632393 67.59559605 -5 55 C-5.40863281 54.06800781 -5.81726563 53.13601562 -6.23828125 52.17578125 C-13.15423447 36.96068416 -25.61592855 26.24437732 -41 20 C-61.24292499 13.34939301 -80.98719726 13.12996462 -100.68359375 21.76171875 C-116.81858306 30.38699971 -129.79350693 44.602551 -135.41015625 62.11328125 C-140.87160553 81.03650223 -139.8182713 101.13527838 -130.8125 118.8125 C-120.73786817 136.09552021 -105.40418867 147.86022933 -86.06640625 153.16796875 C-66.9289242 157.40967913 -47.90545295 154.80923616 -31 144.6875 C-28 143 -28 143 -24 143 C-23.95059501 148.64166991 -23.91427807 154.28321413 -23.89013672 159.92504883 C-23.88007361 161.84466749 -23.86642184 163.76427081 -23.84912109 165.68383789 C-23.82488636 168.44160752 -23.81352008 171.19917464 -23.8046875 173.95703125 C-23.79436493 174.81649857 -23.78404236 175.67596588 -23.77340698 176.56147766 C-23.77325592 177.36208115 -23.77310486 178.16268463 -23.77294922 178.98754883 C-23.768508 179.6914827 -23.76406677 180.39541656 -23.75949097 181.12068176 C-24 183 -24 183 -26 186 C-27.80908203 186.85961914 -27.80908203 186.85961914 -30.0078125 187.53515625 C-30.8210498 187.78644287 -31.63428711 188.03772949 -32.47216797 188.29663086 C-33.34760254 188.54936768 -34.22303711 188.80210449 -35.125 189.0625 C-36.03008301 189.32490479 -36.93516602 189.58730957 -37.86767578 189.85766602 C-64.50669726 197.30430215 -95.08576351 194.99598859 -119.82714844 182.04345703 C-145.95009068 167.32881553 -165.0011274 143.36194845 -173.32568359 114.6081543 C-180.83271155 87.04698415 -177.96614206 57.13959058 -164.4375 31.9375 C-149.45880424 7.13437451 -127.03108834 -12.68887062 -98.80078125 -20.61767578 C-64.13685094 -29.00333545 -27.58756466 -23.10881951 0 0 Z " fill="#070707" transform="translate(219,59)"/>
<path d="M0 0 C0.99773437 -0.00315216 1.99546875 -0.00630432 3.0234375 -0.009552 C4.65152344 -0.00651566 4.65152344 -0.00651566 6.3125 -0.00341797 C7.41851562 -0.00437469 8.52453125 -0.00533142 9.6640625 -0.00631714 C12.00781308 -0.00699913 14.35156553 -0.00514351 16.6953125 -0.00097656 C20.29691788 0.00437139 23.89839853 -0.00092093 27.5 -0.00732422 C29.77083361 -0.00666344 32.04166714 -0.00538229 34.3125 -0.00341797 C35.94058594 -0.00645432 35.94058594 -0.00645432 37.6015625 -0.009552 C38.59929687 -0.00639984 39.59703125 -0.00324768 40.625 0 C41.50800781 0.00079559 42.39101562 0.00159119 43.30078125 0.00241089 C45.3125 0.12939453 45.3125 0.12939453 46.3125 1.12939453 C46.40590434 2.75614231 46.42995171 4.38693504 46.42602539 6.01635742 C46.42594986 7.05736099 46.42587433 8.09836456 46.42579651 9.1709137 C46.42063522 10.30318893 46.41547394 11.43546417 46.41015625 12.60205078 C46.4087413 13.75483017 46.40732635 14.90760956 46.40586853 16.09532166 C46.40025005 19.79420517 46.38769442 23.49302917 46.375 27.19189453 C46.36998738 29.6925447 46.36542406 32.19319582 46.36132812 34.69384766 C46.35027462 40.83905041 46.33351852 46.98421822 46.3125 53.12939453 C43.90961573 54.33083667 42.39410248 54.26251479 39.7109375 54.2746582 C38.27935303 54.28422798 38.27935303 54.28422798 36.81884766 54.29399109 C35.78550293 54.29510391 34.7521582 54.29621674 33.6875 54.29736328 C32.10074463 54.30235588 32.10074463 54.30235588 30.48193359 54.30744934 C28.24251745 54.31251809 26.00309375 54.31485768 23.76367188 54.31469727 C20.32669734 54.31688549 16.89004276 54.3350467 13.453125 54.35400391 C11.2812511 54.35693741 9.10937567 54.35892249 6.9375 54.35986328 C5.38748291 54.37064156 5.38748291 54.37064156 3.80615234 54.38163757 C2.37456787 54.37702263 2.37456787 54.37702263 0.9140625 54.37231445 C-0.34929932 54.37445198 -0.34929932 54.37445198 -1.63818359 54.37663269 C-3.6875 54.12939453 -3.6875 54.12939453 -5.6875 52.12939453 C-5.93473816 49.9594574 -5.93473816 49.9594574 -5.93041992 47.23657227 C-5.93349655 46.21889267 -5.93657318 45.20121307 -5.93974304 44.1526947 C-5.93255753 43.05059158 -5.92537201 41.94848846 -5.91796875 40.81298828 C-5.91751053 39.68619156 -5.91705231 38.55939484 -5.9165802 37.39845276 C-5.91355536 35.01358997 -5.90566221 32.6287292 -5.89331055 30.24389648 C-5.87505882 26.57870544 -5.87280077 22.91376688 -5.87304688 19.24853516 C-5.86813173 16.936684 -5.86230342 14.62483456 -5.85546875 12.31298828 C-5.85435593 11.20886093 -5.8532431 10.10473358 -5.85209656 8.96714783 C-5.84571671 7.95262039 -5.83933685 6.93809296 -5.83276367 5.89282227 C-5.82704597 4.54618752 -5.82704597 4.54618752 -5.82121277 3.17234802 C-5.56518947 -0.73934789 -3.40412199 0.00306713 0 0 Z " fill="#050505" transform="translate(211.6875,177.87060546875)"/>
<path d="M0 0 C0.68429077 -0.00095673 1.36858154 -0.00191345 2.0736084 -0.00289917 C3.52286877 -0.0035808 4.97213218 -0.00172773 6.42138672 0.00244141 C8.64687928 0.00778998 10.87217001 0.0024959 13.09765625 -0.00390625 C14.50260461 -0.00324547 15.90755285 -0.0019643 17.3125 0 C18.59962891 0.00112793 19.88675781 0.00225586 21.21289062 0.00341797 C24.15625 0.1328125 24.15625 0.1328125 25.15625 1.1328125 C25.25707764 3.56941696 25.29597603 5.97705951 25.2890625 8.4140625 C25.29001923 9.14274536 25.29097595 9.87142822 25.29196167 10.62219238 C25.29264335 12.1656096 25.29078988 13.70902967 25.28662109 15.25244141 C25.28127262 17.6227865 25.28656642 19.99294209 25.29296875 22.36328125 C25.29230797 23.85937542 25.2910268 25.35546947 25.2890625 26.8515625 C25.29108673 27.56509888 25.29311096 28.27863525 25.29519653 29.01379395 C25.27120191 34.01786059 25.27120191 34.01786059 24.15625 35.1328125 C21.87677208 35.2330218 19.59417865 35.26362553 17.3125 35.265625 C16.62820923 35.26658173 15.94391846 35.26753845 15.2388916 35.26852417 C13.78963123 35.2692058 12.34036782 35.26735273 10.89111328 35.26318359 C8.66562072 35.25783502 6.44032999 35.2631291 4.21484375 35.26953125 C2.80989539 35.26887047 1.40494715 35.2675893 0 35.265625 C-1.28712891 35.26449707 -2.57425781 35.26336914 -3.90039062 35.26220703 C-6.84375 35.1328125 -6.84375 35.1328125 -7.84375 34.1328125 C-7.94457764 31.69620804 -7.98347603 29.28856549 -7.9765625 26.8515625 C-7.97751923 26.12287964 -7.97847595 25.39419678 -7.97946167 24.64343262 C-7.98014335 23.1000154 -7.97828988 21.55659533 -7.97412109 20.01318359 C-7.96877262 17.6428385 -7.97406642 15.27268291 -7.98046875 12.90234375 C-7.97980797 11.40624958 -7.9785268 9.91015553 -7.9765625 8.4140625 C-7.97858673 7.70052612 -7.98061096 6.98698975 -7.98269653 6.25183105 C-7.94954618 -0.66166023 -6.67980556 0.00585361 0 0 Z " fill="#080808" transform="translate(282.84375,225.8671875)"/>
<path d="M0 0 C3.6421532 1.34184592 6.71749786 2.804497 9 6 C11.23586245 11.88384857 12.57928638 18.32548507 10.01953125 24.28125 C7.78643033 28.07408602 6.12174942 30.24737578 2 32 C2.33 32.66 2.66 33.32 3 34 C5.97 33.34 8.94 32.68 12 32 C13 36 13 36 12 37.6875 C8.97304623 39.67393841 6.60400328 39.87986656 3 40 C-1.36647256 38.49431981 -5.06036967 36.3637782 -9 34 C-10.155 33.54625 -11.31 33.0925 -12.5 32.625 C-17.52345586 30.29268121 -20.91316585 27.15244891 -23 22 C-23.54777856 17.22650108 -23.63640698 12.6263734 -21.875 8.125 C-15.21697233 0.57923531 -9.9148105 -0.73875059 0 0 Z M-16.375 10.25 C-18.53940544 13.91283997 -18.72382626 15.80180769 -18 20 C-15.58483937 23.81580237 -13.33011002 26.55662999 -9 28 C-3.71226063 28.67622595 -3.71226063 28.67622595 1.04296875 26.73046875 C5.63195932 22.84905806 5.63195932 22.84905806 7.3125 17.25 C6.9118895 13.08365081 5.68927657 11.18466962 3 8 C-4.33810425 3.31610367 -10.06159785 4.26888217 -16.375 10.25 Z " fill="#191919" transform="translate(366,183)"/>
<path d="M0 0 C0.33 0 0.66 0 1 0 C1.14695313 1.17433594 1.29390625 2.34867188 1.4453125 3.55859375 C5.2336092 31.5837794 17.58082795 57.84889721 40.28515625 75.625 C59.42997201 90.05384676 80.76185127 98.41312592 104.9375 98.375 C106.55906006 98.37258301 106.55906006 98.37258301 108.21337891 98.37011719 C122.79365924 98.15150943 135.27791504 94.98984908 149 90 C149.33 77.46 149.66 64.92 150 52 C149.34 51.67 148.68 51.34 148 51 C149.32 51 150.64 51 152 51 C152.04940499 56.64166991 152.08572193 62.28321413 152.10986328 67.92504883 C152.11992639 69.84466749 152.13357816 71.76427081 152.15087891 73.68383789 C152.17511364 76.44160752 152.18647992 79.19917464 152.1953125 81.95703125 C152.20563507 82.81649857 152.21595764 83.67596588 152.22659302 84.56147766 C152.22674408 85.36208115 152.22689514 86.16268463 152.22705078 86.98754883 C152.231492 87.6914827 152.23593323 88.39541656 152.24050903 89.12068176 C152 91 152 91 150 94 C148.19091797 94.85961914 148.19091797 94.85961914 145.9921875 95.53515625 C145.1789502 95.78644287 144.36571289 96.03772949 143.52783203 96.29663086 C142.65239746 96.54936768 141.77696289 96.80210449 140.875 97.0625 C139.96991699 97.32490479 139.06483398 97.58730957 138.13232422 97.85766602 C111.49330274 105.30430215 80.91423649 102.99598859 56.17285156 90.04345703 C28.79309724 74.6208731 10.53329886 49.9063322 2.015625 19.91796875 C0.64026306 14.8033223 -0.13422629 9.93274551 -0.0625 4.625 C-0.05347656 3.75101563 -0.04445312 2.87703125 -0.03515625 1.9765625 C-0.02355469 1.32429687 -0.01195312 0.67203125 0 0 Z " fill="#F4F4F4" transform="translate(43,151)"/>
<path d="M0 0 C4.92717264 4.16261137 9.21182267 8.71733807 13.3125 13.6875 C12.9825 14.3475 12.6525 15.0075 12.3125 15.6875 C11.40371094 14.61822266 11.40371094 14.61822266 10.4765625 13.52734375 C-2.9853546 -1.86066303 -20.28660121 -11.04433414 -40.95703125 -12.55078125 C-62.56613764 -13.00345272 -80.46263586 -6.01286213 -96.3125 8.6875 C-108.54538432 21.35789806 -115.61171383 38.63674386 -115.70703125 56.30859375 C-115.00605584 69.23034795 -112.89718703 81.18807956 -106.6875 92.6875 C-107.1825 93.6775 -107.1825 93.6775 -107.6875 94.6875 C-117.51729037 77.38706894 -121.15153978 56.94477834 -116.875 37.27734375 C-111.08316535 18.15222308 -98.23882555 2.23137477 -80.953125 -7.6640625 C-75.66793034 -10.33194784 -70.31457662 -12.48129061 -64.6875 -14.3125 C-63.96691406 -14.55871094 -63.24632812 -14.80492188 -62.50390625 -15.05859375 C-41.18721225 -21.08378016 -16.84294877 -13.1993721 0 0 Z " fill="#F3F3F3" transform="translate(195.6875,86.3125)"/>
<path d="M0 0 C2.90206512 0.34296852 4.58753073 0.62872701 6.78930664 2.6105957 C7.32418701 3.29210693 7.85906738 3.97361816 8.41015625 4.67578125 C9.30637695 5.79436523 9.30637695 5.79436523 10.22070312 6.93554688 C10.82849609 7.71994141 11.43628906 8.50433594 12.0625 9.3125 C13.28075415 10.85168517 14.50075581 12.38948913 15.72265625 13.92578125 C16.25640869 14.61067627 16.79016113 15.29557129 17.34008789 16.0012207 C19.09645946 18.11615144 21.05606416 20.05606416 23 22 C23 14.74 23 7.48 23 0 C24.32 0.33 25.64 0.66 27 1 C27 11.56 27 22.12 27 33 C23 33 23 33 21.17578125 31.453125 C20.25345703 30.36257812 20.25345703 30.36257812 19.3125 29.25 C18.62800781 28.44175781 17.94351562 27.63351563 17.23828125 26.80078125 C13.36789834 21.95773667 9.65848197 17.00500659 6 12 C4.38219843 13.61780157 4.77727853 15.45635518 4.68359375 17.69140625 C4.64169922 18.63564453 4.59980469 19.57988281 4.55664062 20.55273438 C4.51732422 21.54595703 4.47800781 22.53917969 4.4375 23.5625 C4.37272461 25.05813477 4.37272461 25.05813477 4.30664062 26.58398438 C4.20019702 29.0558415 4.09818072 31.5278031 4 34 C2.68 34 1.36 34 0 34 C-0.16833857 29.96178295 -0.32881721 25.92333583 -0.48217773 21.88452148 C-0.53538216 20.51204126 -0.59069309 19.13964095 -0.64819336 17.76733398 C-0.73070839 15.7891258 -0.80489585 13.81057586 -0.87890625 11.83203125 C-0.9260376 10.64327393 -0.97316895 9.4545166 -1.02172852 8.22973633 C-1.00212782 5.31628032 -0.69052984 2.82024478 0 0 Z " fill="#303030" transform="translate(310,183)"/>
<path d="M0 0 C7.26 0 14.52 0 22 0 C22.33 1.32 22.66 2.64 23 4 C19.23564408 6.49055871 16.13382623 6.03090984 11.75 5.625 C10.48671875 5.51414063 9.2234375 5.40328125 7.921875 5.2890625 C6.95765625 5.19367188 5.9934375 5.09828125 5 5 C5.33 7.97 5.66 10.94 6 14 C10.62 14 15.24 14 20 14 C20 15.65 20 17.3 20 19 C15.1129572 20.5638537 9.8870428 20.5638537 5 19 C5 21.64 5 24.28 5 27 C10.94 27.33 16.88 27.66 23 28 C23 29.65 23 31.3 23 33 C21.37799485 34.62200515 19.57976969 34.1299075 17.34375 34.1328125 C15.93416016 34.13474609 15.93416016 34.13474609 14.49609375 34.13671875 C13.50738281 34.13285156 12.51867187 34.12898438 11.5 34.125 C10.51128906 34.12886719 9.52257812 34.13273437 8.50390625 34.13671875 C7.56417969 34.13542969 6.62445313 34.13414062 5.65625 34.1328125 C4.78806641 34.13168457 3.91988281 34.13055664 3.02539062 34.12939453 C1 34 1 34 0 33 C-0.08843793 30.55169574 -0.11528752 28.13179401 -0.09765625 25.68359375 C-0.0962413 24.95253922 -0.09482635 24.22148468 -0.09336853 23.46827698 C-0.08775408 21.12464368 -0.07519922 18.78110461 -0.0625 16.4375 C-0.05748686 14.85221492 -0.05292363 13.26692834 -0.04882812 11.68164062 C-0.03862921 7.78769457 -0.01905687 3.89395323 0 0 Z " fill="#2C2C2C" transform="translate(411,183)"/>
<path d="M0 0 C0.70253906 0.48597656 1.40507812 0.97195312 2.12890625 1.47265625 C1.46890625 3.12265625 0.80890625 4.77265625 0.12890625 6.47265625 C-0.89203125 5.97765625 -0.89203125 5.97765625 -1.93359375 5.47265625 C-5.43913927 4.27927905 -8.18856685 4.19987648 -11.87109375 4.47265625 C-12.86109375 5.13265625 -13.85109375 5.79265625 -14.87109375 6.47265625 C-14.86600071 8.44563165 -14.86600071 8.44563165 -13.87109375 10.47265625 C-10.65589932 11.72375701 -7.42221998 12.4429898 -4.0703125 13.25 C-0.31254441 14.68611894 1.01736834 16.0911354 3.12890625 19.47265625 C3.69140625 22.97265625 3.69140625 22.97265625 3.12890625 26.47265625 C0.17989694 30.13899215 -2.08955968 32.13799436 -6.8515625 32.7109375 C-12.95472933 32.91617674 -16.60213448 31.53823255 -21.87109375 28.47265625 C-21.54109375 26.82265625 -21.21109375 25.17265625 -20.87109375 23.47265625 C-16.12109375 24.34765625 -16.12109375 24.34765625 -13.87109375 25.47265625 C-12.37352504 25.56765128 -10.87166443 25.60252823 -9.37109375 25.59765625 C-8.57703125 25.60023438 -7.78296875 25.6028125 -6.96484375 25.60546875 C-4.81190841 25.60543621 -4.81190841 25.60543621 -2.87109375 24.47265625 C-2.78822328 22.51580796 -2.78822328 22.51580796 -3.87109375 20.47265625 C-6.38785008 19.45050256 -8.70341105 18.67025827 -11.30859375 17.97265625 C-18.42160143 16.0573617 -18.42160143 16.0573617 -20.3125 13.59765625 C-21.31331076 9.79037614 -21.64126097 6.35914822 -20.87109375 2.47265625 C-15.8822852 -3.20904238 -6.47437657 -3.44419216 0 0 Z " fill="#262626" transform="translate(401.87109375,184.52734375)"/>
<path d="M0 0 C1.64453125 0.98828125 1.64453125 0.98828125 3.95703125 3.23828125 C3.95703125 4.55828125 3.95703125 5.87828125 3.95703125 7.23828125 C-0.59654018 7.49125744 -0.59654018 7.49125744 -2.91796875 6.17578125 C-6.72329535 4.49696069 -10.44876806 5.75116437 -14.29296875 6.92578125 C-17.00602016 8.96056981 -17.89029515 11.08359561 -19.04296875 14.23828125 C-19.04296875 18.42139309 -18.36550156 19.866128 -15.60546875 23.05078125 C-11.90165174 26.21257626 -9.87943288 26.36874647 -5.015625 26.46875 C-2.72152209 26.35216102 -2.72152209 26.35216102 -0.04296875 24.23828125 C2.14453125 24.61328125 2.14453125 24.61328125 3.95703125 25.23828125 C3.83203125 27.55078125 3.83203125 27.55078125 2.95703125 30.23828125 C-1.41143829 33.32817434 -5.80996714 34.12024781 -11.04296875 33.23828125 C-16.30400934 31.45909298 -20.07282864 29.03619988 -23.04296875 24.23828125 C-25.46241075 19.1689742 -25.4762607 14.58985834 -24.04296875 9.23828125 C-22.17538015 5.36116732 -19.86804143 2.84726347 -16.41796875 0.30078125 C-11.09632488 -1.37455108 -5.33236724 -1.98816752 0 0 Z " fill="#D5D5D5" transform="translate(462.04296875,183.76171875)"/>
<path d="M0 0 C5.78415475 0.09697984 9.29500944 1.20179246 14 4.5625 C17.18540444 9.02206622 17.75589529 14.67747295 17.63671875 20.03125 C16.955704 24.04854915 14.97625213 27.32079701 12.25 30.3125 C10.078125 31.53515625 10.078125 31.53515625 8.25 32.3125 C8.58 32.9725 8.91 33.6325 9.25 34.3125 C10.9 34.3125 12.55 34.3125 14.25 34.3125 C13.59 34.9725 12.93 35.6325 12.25 36.3125 C9.25 36.1875 9.25 36.1875 6.25 35.3125 C4.875 33.25 4.875 33.25 4.25 31.3125 C6.56 29.6625 8.87 28.0125 11.25 26.3125 C8.5594472 27.53257944 8.5594472 27.53257944 6.25 29.3125 C1.70956743 29.93307815 -2.82268501 30.32544509 -6.96484375 28.1484375 C-11.42979221 24.46697894 -13.38890912 21.14104523 -14.125 15.375 C-13.55736714 10.73933167 -11.34735209 7.78484192 -7.953125 4.65625 C-5.20380061 2.97935711 -3.45013411 2.94285475 -0.25 3 C1.15765625 3.00580078 1.15765625 3.00580078 2.59375 3.01171875 C5.27087334 3.3148636 6.94965635 3.95073996 9.25 5.3125 C6.66451372 2.72701372 4.95461615 2.33608153 1.33203125 2.21484375 C0.25308594 2.22644531 -0.82585937 2.23804688 -1.9375 2.25 C-3.02417969 2.25902344 -4.11085938 2.26804688 -5.23046875 2.27734375 C-6.06191406 2.28894531 -6.89335937 2.30054688 -7.75 2.3125 C-5.0881996 -0.3493004 -3.70750737 0.01383398 0 0 Z M-10.125 10.5625 C-12.28940544 14.22533997 -12.47382626 16.11430769 -11.75 20.3125 C-9.33483937 24.12830237 -7.08011002 26.86912999 -2.75 28.3125 C2.53773937 28.98872595 2.53773937 28.98872595 7.29296875 27.04296875 C11.88195932 23.16155806 11.88195932 23.16155806 13.5625 17.5625 C13.1618895 13.39615081 11.93927657 11.49716962 9.25 8.3125 C1.91189575 3.62860367 -3.81159785 4.58138217 -10.125 10.5625 Z " fill="#717171" transform="translate(359.75,182.6875)"/>
<path d="M0 0 C9.27109428 8.19116461 13.33615446 23.43412783 14.15966797 35.30078125 C14.27903353 37.78516987 14.34209686 40.26301011 14.375 42.75 C14.38909912 43.51795898 14.40319824 44.28591797 14.41772461 45.07714844 C14.36328112 51.51939849 12.9805791 55.39806966 11 62 C22.55 62 34.1 62 46 62 C46.6692453 55.30754697 47.1934237 48.87799257 47.1875 42.1875 C47.18741943 41.32020264 47.18733887 40.45290527 47.18725586 39.55932617 C47.12548088 32.55534431 46.26336997 25.88584855 45 19 C44.61801725 16.00290456 44.30570273 13.0060768 44 10 C52.57361257 22.86041885 50.43137884 46.70211622 48.546875 61.27734375 C48 64 48 64 47 65 C44.34543807 65.10095564 41.71744824 65.13970998 39.0625 65.1328125 C37.86959351 65.13424759 37.86959351 65.13424759 36.65258789 65.13571167 C34.9679354 65.13639343 33.28328029 65.13453943 31.59863281 65.13037109 C29.01100803 65.12502275 26.42355684 65.13031619 23.8359375 65.13671875 C22.20312461 65.13605797 20.57031184 65.1347768 18.9375 65.1328125 C18.15834229 65.13483673 17.37918457 65.13686096 16.57641602 65.13894653 C11.11495105 65.11495105 11.11495105 65.11495105 10 64 C10.37257652 60.33633089 10.86220183 56.75480492 11.5234375 53.1328125 C13.64365606 39.19498232 11.54901443 24.50266392 5 12 C4.08117139 10.18859502 3.16453786 8.37607507 2.25 6.5625 C1.82203125 5.73878906 1.3940625 4.91507812 0.953125 4.06640625 C0 2 0 2 0 0 Z " fill="#D4D4D4" transform="translate(209,102)"/>
<path d="M0 0 C1.65 0 3.3 0 5 0 C5.33 8.91 5.66 17.82 6 27 C11.28 27.33 16.56 27.66 22 28 C23 32 23 32 22 34 C18.70835171 34.02895225 15.41673601 34.0467823 12.125 34.0625 C11.18785156 34.07087891 10.25070312 34.07925781 9.28515625 34.08789062 C7.94130859 34.09272461 7.94130859 34.09272461 6.5703125 34.09765625 C5.32918701 34.10551147 5.32918701 34.10551147 4.06298828 34.11352539 C2 34 2 34 0 33 C0 22.11 0 11.22 0 0 Z " fill="#C7C7C7" transform="translate(270,183)"/>
<path d="M0 0 C0.33 0 0.66 0 1 0 C1 17.16 1 34.32 1 52 C-1.40288427 53.20144213 -2.91839752 53.13312026 -5.6015625 53.14526367 C-7.03314697 53.15483345 -7.03314697 53.15483345 -8.49365234 53.16459656 C-9.52699707 53.16570938 -10.5603418 53.1668222 -11.625 53.16796875 C-13.21175537 53.17296135 -13.21175537 53.17296135 -14.83056641 53.17805481 C-17.06998255 53.18312356 -19.30940625 53.18546315 -21.54882812 53.18530273 C-24.98580266 53.18749096 -28.42245724 53.20565216 -31.859375 53.22460938 C-34.0312489 53.22754288 -36.20312433 53.22952796 -38.375 53.23046875 C-39.92501709 53.24124702 -39.92501709 53.24124702 -41.50634766 53.25224304 C-42.93793213 53.2476281 -42.93793213 53.2476281 -44.3984375 53.24291992 C-45.66179932 53.24505745 -45.66179932 53.24505745 -46.95068359 53.24723816 C-49 53 -49 53 -51 51 C-51.125 48.375 -51.125 48.375 -51 46 C-50.67 47.32 -50.34 48.64 -50 50 C-33.5 50 -17 50 0 50 C0 33.5 0 17 0 0 Z " fill="#F6F6F6" transform="translate(257,179)"/>
<path d="M0 0 C2.475 0.495 2.475 0.495 5 1 C5 11.89 5 22.78 5 34 C3.35 33.67 1.7 33.34 0 33 C0 22.11 0 11.22 0 0 Z " fill="#8E8E8E" transform="translate(296,183)"/>
<path d="M0 0 C0.54914063 0.32355469 1.09828125 0.64710938 1.6640625 0.98046875 C1.6640625 2.30046875 1.6640625 3.62046875 1.6640625 4.98046875 C0.9525 4.65949219 0.2409375 4.33851563 -0.4921875 4.0078125 C-5.07356078 2.35272847 -9.53487273 2.24517054 -14.3359375 2.98046875 C-17.48816325 5.21037404 -17.48816325 5.21037404 -19.3359375 7.98046875 C-19.6659375 8.31046875 -19.9959375 8.64046875 -20.3359375 8.98046875 C-20.85842486 14.08542718 -21.16944083 18.52183792 -18.5859375 23.04296875 C-14.91022681 26.20816406 -12.1956034 27.26010086 -7.3359375 27.23046875 C-6.0675 27.23820312 -6.0675 27.23820312 -4.7734375 27.24609375 C-2.20114939 26.9657803 -0.5556267 26.27528745 1.6640625 24.98046875 C0.6640625 27.98046875 0.6640625 27.98046875 -1.0625 29.14453125 C-5.38490096 30.73386769 -9.80907053 30.51188357 -14.3359375 29.98046875 C-18.90829269 27.77594035 -21.12114789 25.49207721 -23.3359375 20.98046875 C-23.76953125 17.60546875 -23.76953125 17.60546875 -23.7734375 13.98046875 C-23.79277344 12.78421875 -23.81210937 11.58796875 -23.83203125 10.35546875 C-23.24976745 6.39424099 -22.1086849 4.80907736 -19.3359375 1.98046875 C-13.93970467 -1.83637886 -6.12747917 -2.674368 0 0 Z " fill="#222222" transform="translate(462.3359375,184.01953125)"/>
<path d="M0 0 C1.64574566 -0.02688151 3.29161413 -0.04634123 4.9375 -0.0625 C5.85402344 -0.07410156 6.77054687 -0.08570313 7.71484375 -0.09765625 C10 0 10 0 11 1 C11.10082764 3.43660446 11.13972603 5.84424701 11.1328125 8.28125 C11.13376923 9.00993286 11.13472595 9.73861572 11.13571167 10.48937988 C11.13639335 12.0327971 11.13453988 13.57621717 11.13037109 15.11962891 C11.12502262 17.489974 11.13031642 19.86012959 11.13671875 22.23046875 C11.13605797 23.72656292 11.1347768 25.22265697 11.1328125 26.71875 C11.13483673 27.43228638 11.13686096 28.14582275 11.13894653 28.88098145 C11.11495191 33.88504809 11.11495191 33.88504809 10 35 C7.70848583 35.08790975 5.41427476 35.10694038 3.12109375 35.09765625 C2.09110008 35.09553383 2.09110008 35.09553383 1.04029846 35.09336853 C-1.16067801 35.08775479 -3.36155409 35.07520007 -5.5625 35.0625 C-7.05143083 35.05748676 -8.54036324 35.05292355 -10.02929688 35.04882812 C-13.68623075 35.03778093 -17.34310558 35.02050713 -21 35 C-21.495 33.515 -21.495 33.515 -22 32 C-11.77 32 -1.54 32 9 32 C9 21.77 9 11.54 9 1 C6.03 1 3.06 1 0 1 C0 0.67 0 0.34 0 0 Z " fill="#F7F7F7" transform="translate(297,226)"/>
<path d="M0 0 C3.96 0 7.92 0 12 0 C12 1.65 12 3.3 12 5 C7.1129572 6.5638537 1.8870428 6.5638537 -3 5 C-3 7.64 -3 10.28 -3 13 C2.94 13.33 8.88 13.66 15 14 C15 15.65 15 17.3 15 19 C14 20 14 20 11.95874023 20.11352539 C11.08419189 20.10828857 10.20964355 20.10305176 9.30859375 20.09765625 C8.36435547 20.09443359 7.42011719 20.09121094 6.44726562 20.08789062 C4.95743164 20.07532227 4.95743164 20.07532227 3.4375 20.0625 C2.44041016 20.05798828 1.44332031 20.05347656 0.41601562 20.04882812 C-2.05604849 20.03700007 -4.52799518 20.02051849 -7 20 C-7.33 19.01 -7.66 18.02 -8 17 C-1.07 17 5.86 17 13 17 C13 16.34 13 15.68 13 15 C11.78441406 15.01160156 10.56882812 15.02320313 9.31640625 15.03515625 C7.73177236 15.04453278 6.14713682 15.05363313 4.5625 15.0625 C3.76005859 15.07087891 2.95761719 15.07925781 2.13085938 15.08789062 C0.08704779 15.0965143 -1.95683902 15.0522815 -4 15 C-5 14 -5 14 -5.09765625 11.49609375 C-5.06510417 8.6640625 -5.03255208 5.83203125 -5 3 C0.28 3 5.56 3 11 3 C11 2.34 11 1.68 11 1 C7.37 1 3.74 1 0 1 C0 0.67 0 0.34 0 0 Z " fill="#F1F1F1" transform="translate(419,197)"/>
<path d="M0 0 C0.99 0 1.98 0 3 0 C1.77706629 3.2256279 0.36707917 6.09430778 -1.375 9.0625 C-10.5087696 27.30285536 -9.03204864 48.10795876 -3 67 C-1.79017523 69.7619026 -0.43359254 72.34519901 1 75 C0.505 75.99 0.505 75.99 0 77 C-9.76759933 59.80902518 -13.75334082 38.90898977 -9.046875 19.37890625 C-7.02801039 12.5054308 -3.84264611 6.03377198 0 0 Z " fill="#F2F2F2" transform="translate(88,104)"/>
<path d="M0 0 C0.33 0 0.66 0 1 0 C1.14695313 1.17433594 1.29390625 2.34867188 1.4453125 3.55859375 C5.15668973 31.01474201 17.14734834 57.20733603 39.25390625 74.79296875 C40.80251636 75.90984514 42.39505818 76.96570416 44 78 C43.01 78.33 42.02 78.66 41 79 C19.15052485 65.72731705 6.95552452 39.79748846 1 16 C0.23282784 12.14507904 -0.11557306 8.55240631 -0.0625 4.625 C-0.05347656 3.75101563 -0.04445312 2.87703125 -0.03515625 1.9765625 C-0.02355469 1.32429687 -0.01195312 0.67203125 0 0 Z " fill="#DBDBDB" transform="translate(43,151)"/>
<path d="M0 0 C4.14056554 0.49331388 5.82999343 1.3838447 8.41015625 4.640625 C9.00763672 5.38183594 9.60511719 6.12304688 10.22070312 6.88671875 C10.82849609 7.66660156 11.43628906 8.44648438 12.0625 9.25 C12.97999023 10.39662109 12.97999023 10.39662109 13.91601562 11.56640625 C15.62207603 13.70220943 17.31233003 15.84965839 19 18 C20.33202921 19.66770913 21.66463712 21.334959 23 23 C20 23 20 23 18.45361328 21.51879883 C17.91462402 20.83841553 17.37563477 20.15803223 16.8203125 19.45703125 C16.22089844 18.71259766 15.62148438 17.96816406 15.00390625 17.20117188 C14.38386719 16.41291016 13.76382812 15.62464844 13.125 14.8125 C11.90094453 13.27534403 10.67443216 11.74014088 9.4453125 10.20703125 C8.90406738 9.5210083 8.36282227 8.83498535 7.80517578 8.12817383 C5.6802268 5.62301014 3.32284882 3.32284882 1 1 C1 10.9 1 20.8 1 31 C1.66 31 2.32 31 3 31 C3 23.08 3 15.16 3 7 C6.76048004 10.00838403 9.04008833 12.05345111 11.8125 15.75 C12.41707031 16.54921875 13.02164062 17.3484375 13.64453125 18.171875 C14.09183594 18.77515625 14.53914063 19.3784375 15 20 C14.67 20.66 14.34 21.32 14 22 C12.85157077 20.71064081 11.70633773 19.41843421 10.5625 18.125 C9.92441406 17.40570313 9.28632813 16.68640625 8.62890625 15.9453125 C7 14 7 14 6 12 C4.38219843 13.61780157 4.77727853 15.45635518 4.68359375 17.69140625 C4.64169922 18.63564453 4.59980469 19.57988281 4.55664062 20.55273438 C4.51732422 21.54595703 4.47800781 22.53917969 4.4375 23.5625 C4.37272461 25.05813477 4.37272461 25.05813477 4.30664062 26.58398438 C4.20019702 29.0558415 4.09818072 31.5278031 4 34 C2.68 34 1.36 34 0 34 C-0.16833857 29.96178295 -0.32881721 25.92333583 -0.48217773 21.88452148 C-0.53538216 20.51204126 -0.59069309 19.13964095 -0.64819336 17.76733398 C-0.73070839 15.7891258 -0.80489585 13.81057586 -0.87890625 11.83203125 C-0.9260376 10.64327393 -0.97316895 9.4545166 -1.02172852 8.22973633 C-1.00212782 5.31628032 -0.69052984 2.82024478 0 0 Z " fill="#C7C7C7" transform="translate(310,183)"/>
<path d="M0 0 C21.10609628 -1.11084717 38.03721569 3.78036326 54.40625 17.609375 C58.24630299 21.14870095 61.67897064 24.97479822 65 29 C64.67 29.66 64.34 30.32 64 31 C63.39414063 30.28714844 62.78828125 29.57429688 62.1640625 28.83984375 C44.92670276 9.13621561 24.31475208 3.78283109 -1 2 C-0.67 1.34 -0.34 0.68 0 0 Z " fill="#F8F8F8" transform="translate(144,71)"/>
<path d="M0 0 C1.32 0 2.64 0 4 0 C4.04940499 5.64166991 4.08572193 11.28321413 4.10986328 16.92504883 C4.11992639 18.84466749 4.13357816 20.76427081 4.15087891 22.68383789 C4.17511364 25.44160752 4.18647992 28.19917464 4.1953125 30.95703125 C4.20563507 31.81649857 4.21595764 32.67596588 4.22659302 33.56147766 C4.22674408 34.36208115 4.22689514 35.16268463 4.22705078 35.98754883 C4.231492 36.6914827 4.23593323 37.39541656 4.24050903 38.12068176 C4 40 4 40 2 43 C-0.67749334 44.05022368 -3.25276559 44.93831711 -6 45.75 C-6.73734375 45.98332031 -7.4746875 46.21664062 -8.234375 46.45703125 C-13.73398526 48.13300737 -13.73398526 48.13300737 -16 47 C-13 44 -13 44 1 39 C1.33 26.46 1.66 13.92 2 1 C1.34 0.67 0.68 0.34 0 0 Z " fill="#FDFDFD" transform="translate(191,202)"/>
<path d="M0 0 C0.66 0.33 1.32 0.66 2 1 C1.57847656 1.39832031 1.15695312 1.79664063 0.72265625 2.20703125 C0.17480469 2.73683594 -0.37304688 3.26664063 -0.9375 3.8125 C-1.48277344 4.33457031 -2.02804687 4.85664063 -2.58984375 5.39453125 C-5.49018158 8.69657792 -5.33552088 12.54277006 -5.28125 16.71484375 C-4.84050167 20.29592389 -3.35179501 22.33039485 -1 25 C1.61755915 26.9287278 3.84115818 27.9493058 6.9375 28.9375 C10 30 10 30 12.875 32.125 C17.02213482 34.61328089 19.22282902 34.39157139 24 34 C25.485 33.505 25.485 33.505 27 33 C26.01 32.34 25.02 31.68 24 31 C25.32 30.67 26.64 30.34 28 30 C28.6875 31.8125 28.6875 31.8125 29 34 C27.36271203 36.76292345 25.85829933 37.03815018 22.75 37.875 C16.50813095 38.0830623 12.18939727 35.11363836 7 32 C5.845 31.54625 4.69 31.0925 3.5 30.625 C-1.52345586 28.29268121 -4.91316585 25.15244891 -7 20 C-7.55505572 15.16308591 -7.6697657 10.57394941 -5.75 6.0625 C-3.93070028 3.91832533 -2.05829621 1.91634475 0 0 Z " fill="#F3F3F3" transform="translate(350,185)"/>
<path d="M0 0 C1.5 1.0625 1.5 1.0625 3 3 C3.5 6.375 3.5 6.375 3 10 C0.05099069 13.6663359 -2.21846593 15.66533811 -6.98046875 16.23828125 C-13.08363558 16.44352049 -16.73104073 15.0655763 -22 12 C-21.67 10.35 -21.34 8.7 -21 7 C-16.25 7.875 -16.25 7.875 -14 9 C-12.52331663 9.0952699 -11.04224543 9.12985959 -9.5625 9.125 C-8.78003906 9.12757813 -7.99757813 9.13015625 -7.19140625 9.1328125 C-4.82104653 9.08382548 -4.82104653 9.08382548 -2 8 C-2 8.66 -2 9.32 -2 10 C-4.55919182 11.27959591 -6.45484028 11.16816536 -9.3125 11.1875 C-10.72982422 11.20876953 -10.72982422 11.20876953 -12.17578125 11.23046875 C-15.14406882 10.98824335 -17.30867165 10.24026607 -20 9 C-19.21349117 11.15317597 -19.21349117 11.15317597 -17.25 11.61328125 C-14.7990287 12.03454194 -12.48691334 12.16854487 -10 12.1875 C-9.154375 12.20167969 -8.30875 12.21585938 -7.4375 12.23046875 C-4.80826686 11.98187139 -3.21927194 11.41181363 -1 10 C0.14352916 7.71294169 0.10334439 6.40735238 0.0625 3.875 C0.041875 2.59625 0.02125 1.3175 0 0 Z " fill="#E1E1E1" transform="translate(402,201)"/>
<path d="M0 0 C2.57550378 1.41284779 3.97583459 2.81171307 6 5 C5.67 5.66 5.34 6.32 5 7 C4.01 6.319375 3.02 5.63875 2 4.9375 C-1.59973003 2.88988029 -4.09607676 2.61785329 -8.13671875 3.37890625 C-10.99888886 4.33296295 -12.88803557 5.88803557 -15 8 C-16.57455739 11.14911479 -16.34799118 13.52008816 -16 17 C-13.99707521 20.47998516 -11.87946651 22.7068445 -8 24 C-6.27204648 24.06802967 -4.54164635 24.08495645 -2.8125 24.0625 C-1.91144531 24.05347656 -1.01039063 24.04445312 -0.08203125 24.03515625 C0.94857422 24.01775391 0.94857422 24.01775391 2 24 C1.67 24.66 1.34 25.32 1 26 C-8.26901233 26.90511151 -8.26901233 26.90511151 -12.21875 24.83984375 C-16.67543878 21.14796809 -18.6385474 17.83137871 -19.375 12.0625 C-18.80782416 7.43056398 -16.60682374 4.46422683 -13.1953125 1.35546875 C-9.13213696 -1.1532891 -4.59703549 -0.74295523 0 0 Z " fill="#E8E8E8" transform="translate(365,186)"/>
<path d="M0 0 C3.1875 1.5 3.1875 1.5 5 3 C5.33 2.01 5.66 1.02 6 0 C6.33 1.65 6.66 3.3 7 5 C2.44642857 5.25297619 2.44642857 5.25297619 0.125 3.9375 C-3.6803266 2.25867944 -7.40579931 3.51288312 -11.25 4.6875 C-13.96305141 6.72228856 -14.8473264 8.84531436 -16 12 C-16 16.17139147 -15.349438 17.60576226 -12.5625 20.75 C-11.716875 21.4925 -10.87125 22.235 -10 23 C-9.34 23.66 -8.68 24.32 -8 25 C-11.60555003 24.79396857 -13.01433211 23.98789733 -15.8125 21.625 C-18.67572725 17.88287071 -18.64110499 14.13906695 -18.4296875 9.5625 C-17.84781444 6.09242067 -16.61680706 4.3177434 -14 2 C-9.55299615 -0.96466923 -5.21871437 -0.52568072 0 0 Z " fill="#F3F3F3" transform="translate(459,186)"/>
<path d="M0 0 C4.26687808 2.13343904 5.83389766 3.93698822 8.75 7.625 C9.54921875 8.62789062 10.3484375 9.63078125 11.171875 10.6640625 C12.07679688 11.82035156 12.07679688 11.82035156 13 13 C12.01 13.99 11.02 14.98 10 16 C7.69 13.03 5.38 10.06 3 7 C2.67 14.59 2.34 22.18 2 30 C1.34 30 0.68 30 0 30 C0 20.1 0 10.2 0 0 Z " fill="#191919" transform="translate(311,184)"/>
<path d="M0 0 C-1.05058594 0.56847656 -2.10117188 1.13695312 -3.18359375 1.72265625 C-13.51717904 7.37762554 -22.65592374 12.88142646 -30.30859375 22.0078125 C-32.03421632 24.04030098 -33.82422109 25.96820503 -35.6875 27.875 C-36.22761719 28.42929688 -36.76773438 28.98359375 -37.32421875 29.5546875 C-39.10936993 31.09432838 -40.85624786 32.0378803 -43 33 C-37.24052925 20.03380687 -22.37611776 9.60525605 -10.375 2.75 C-9.34427368 2.15723267 -9.34427368 2.15723267 -8.29272461 1.55249023 C-3.38279957 -1.12759986 -3.38279957 -1.12759986 0 0 Z " fill="#8C8C8C" transform="translate(108,45)"/>
<path d="M0 0 C0.66 0 1.32 0 2 0 C2 8.91 2 17.82 2 27 C7.94 27.33 13.88 27.66 20 28 C20 28.66 20 29.32 20 30 C13.4 30 6.8 30 0 30 C0 20.1 0 10.2 0 0 Z " fill="#050505" transform="translate(271,184)"/>
<path d="M0 0 C7.26 0 14.52 0 22 0 C22.33 1.32 22.66 2.64 23 4 C19.23564408 6.49055871 16.13382623 6.03090984 11.75 5.625 C10.48671875 5.51414063 9.2234375 5.40328125 7.921875 5.2890625 C6.95765625 5.19367188 5.9934375 5.09828125 5 5 C5 7.97 5 10.94 5 14 C4.34 14 3.68 14 3 14 C3 10.37 3 6.74 3 3 C8.94 3 14.88 3 21 3 C21 2.34 21 1.68 21 1 C10.605 1.495 10.605 1.495 0 2 C0 1.34 0 0.68 0 0 Z " fill="#E2E2E2" transform="translate(411,183)"/>
<path d="M0 0 C1.03769531 -0.01675781 2.07539063 -0.03351563 3.14453125 -0.05078125 C6.52955108 0.35333537 8.42010768 1.37379078 11.1875 3.3125 C10.5275 4.9625 9.8675 6.6125 9.1875 8.3125 C8.1665625 7.8175 8.1665625 7.8175 7.125 7.3125 C3.61945448 6.1191228 0.8700269 6.03972023 -2.8125 6.3125 C-5.97916667 8.14583333 -5.97916667 8.14583333 -7.8125 11.3125 C-8.5 9 -8.5 9 -8.8125 6.3125 C-7.6796875 4.66015625 -7.6796875 4.66015625 -5.8125 3.3125 C-3.18359375 2.984375 -3.18359375 2.984375 -0.25 3.0625 C0.72066406 3.07796875 1.69132812 3.0934375 2.69140625 3.109375 C5.1875 3.3125 5.1875 3.3125 7.1875 4.3125 C7.5175 3.6525 7.8475 2.9925 8.1875 2.3125 C2.9075 2.3125 -2.3725 2.3125 -7.8125 2.3125 C-5.14098149 -0.35901851 -3.72067468 0.01376328 0 0 Z " fill="#E1E1E1" transform="translate(392.8125,182.6875)"/>
<path d="M0 0 C0.94746094 -0.01417969 1.89492188 -0.02835938 2.87109375 -0.04296875 C5.60751644 0.19135482 7.22678123 0.79048617 9.5625 2.1875 C9.5625 3.5075 9.5625 4.8275 9.5625 6.1875 C8.84964844 5.86652344 8.13679688 5.54554688 7.40234375 5.21484375 C2.81237179 3.55437246 -1.62636605 3.46688963 -6.4375 4.1875 C-8.94041081 5.58751852 -10.40166937 7.1007736 -12.4375 9.1875 C-13.4275 9.5175 -14.4175 9.8475 -15.4375 10.1875 C-14.08594718 5.76423622 -12.23859562 3.78337018 -8.4375 1.1875 C-5.3864365 0.17047883 -3.19550939 0.02167917 0 0 Z " fill="#585858" transform="translate(454.4375,182.8125)"/>
<path d="M0 0 C0.66 0 1.32 0 2 0 C2.042721 1.66611905 2.04063832 3.33382885 2 5 C1 6 1 6 -1.04125977 6.11352539 C-1.91580811 6.10828857 -2.79035645 6.10305176 -3.69140625 6.09765625 C-4.63564453 6.09443359 -5.57988281 6.09121094 -6.55273438 6.08789062 C-7.54595703 6.07951172 -8.53917969 6.07113281 -9.5625 6.0625 C-10.55958984 6.05798828 -11.55667969 6.05347656 -12.58398438 6.04882812 C-15.05604849 6.03700007 -17.52799518 6.02051849 -20 6 C-20.33 5.01 -20.66 4.02 -21 3 C-14.07 3 -7.14 3 0 3 C0 2.01 0 1.02 0 0 Z " fill="#F3F3F3" transform="translate(432,211)"/>
<path d="M0 0 C1.98 0 3.96 0 6 0 C7.40457737 2.80915474 7.24895157 4.88810534 7 8 C5.22015595 11.1359157 4.47691793 11.84102736 1 13 C-4.29802777 13.38612745 -9.20180597 13.55903682 -14 11 C-14 10.01 -14 9.02 -14 8 C-13.31550781 8.32742187 -12.63101562 8.65484375 -11.92578125 8.9921875 C-8.51087941 10.16848212 -5.78968716 10.19777146 -2.1875 10.125 C-1.02605469 10.10695312 0.13539063 10.08890625 1.33203125 10.0703125 C2.65267578 10.03550781 2.65267578 10.03550781 4 10 C3.67495741 5.17805357 3.67495741 5.17805357 1.4375 1.0625 C0.963125 0.711875 0.48875 0.36125 0 0 Z " fill="#353535" transform="translate(396,201)"/>
<path d="M0 0 C13.00340413 1.58951774 24.9524673 12.36167582 32.87109375 22.36328125 C33.24363281 22.90339844 33.61617187 23.44351563 34 24 C33.67 24.66 33.34 25.32 33 26 C32.39414063 25.28714844 31.78828125 24.57429688 31.1640625 23.83984375 C22.48384959 13.91769268 12.69435815 6.23145272 0 2 C0 1.34 0 0.68 0 0 Z " fill="#E7E7E7" transform="translate(175,76)"/>
<path d="M0 0 C0.66 0.33 1.32 0.66 2 1 C1.67 2.65 1.34 4.3 1 6 C-2.29164829 6.02895225 -5.58326399 6.0467823 -8.875 6.0625 C-9.81214844 6.07087891 -10.74929688 6.07925781 -11.71484375 6.08789062 C-13.05869141 6.09272461 -13.05869141 6.09272461 -14.4296875 6.09765625 C-15.67081299 6.10551147 -15.67081299 6.10551147 -16.93701172 6.11352539 C-19 6 -19 6 -21 5 C-21 4.34 -21 3.68 -21 3 C-14.07 3 -7.14 3 0 3 C0 2.01 0 1.02 0 0 Z " fill="#F7F7F7" transform="translate(291,211)"/>
<path d="M0 0 C3.76048004 3.00838403 6.04008833 5.05345111 8.8125 8.75 C9.41707031 9.54921875 10.02164062 10.3484375 10.64453125 11.171875 C11.09183594 11.77515625 11.53914063 12.3784375 12 13 C11.67 13.66 11.34 14.32 11 15 C9.85157077 13.71064081 8.70633773 12.41843421 7.5625 11.125 C6.92441406 10.40570313 6.28632813 9.68640625 5.62890625 8.9453125 C4 7 4 7 3 5 C1.38219843 6.61780157 1.77727853 8.45635518 1.68359375 10.69140625 C1.64169922 11.63564453 1.59980469 12.57988281 1.55664062 13.55273438 C1.51732422 14.54595703 1.47800781 15.53917969 1.4375 16.5625 C1.37272461 18.05813477 1.37272461 18.05813477 1.30664062 19.58398438 C1.20019702 22.0558415 1.09818072 24.5278031 1 27 C-0.32 27 -1.64 27 -3 27 C-3 26.01 -3 25.02 -3 24 C-2.01 24 -1.02 24 0 24 C0 16.08 0 8.16 0 0 Z " fill="#F3F3F3" transform="translate(313,190)"/>
<path d="M0 0 C0.33 0 0.66 0 1 0 C1.64606456 6.20221974 0.90918131 10.13875078 -2.515625 15.37109375 C-4.18359911 17.20147587 -5.73599527 18.03731423 -8 19 C-7.67 19.66 -7.34 20.32 -7 21 C-5.35 21 -3.7 21 -2 21 C-2.66 21.66 -3.32 22.32 -4 23 C-7 22.875 -7 22.875 -10 22 C-11.1875 19.9453125 -11.1875 19.9453125 -12 18 C-11.45730469 17.62488281 -10.91460937 17.24976563 -10.35546875 16.86328125 C-4.79687012 12.88713052 -1.56988419 10.16026685 -0.3125 3.1875 C-0.1578125 1.6096875 -0.1578125 1.6096875 0 0 Z " fill="#F8F8F8" transform="translate(376,196)"/>
<path d="M0 0 C0.66 0.33 1.32 0.66 2 1 C1.57847656 1.39832031 1.15695312 1.79664063 0.72265625 2.20703125 C0.17480469 2.73683594 -0.37304688 3.26664063 -0.9375 3.8125 C-1.48277344 4.33457031 -2.02804687 4.85664063 -2.58984375 5.39453125 C-5.49018158 8.69657792 -5.33552088 12.54277006 -5.28125 16.71484375 C-4.84050167 20.29592389 -3.35179501 22.33039485 -1 25 C2.23981127 27.40909043 5.01677818 28.43096831 9 29 C7.3125 30.125 7.3125 30.125 5 31 C0.50607869 29.96294124 -2.00523069 27.39946786 -5 24 C-7.89392305 19.30742339 -7.51667546 14.34162941 -7 9 C-5.38981362 5.216062 -2.99505594 2.78850036 0 0 Z " fill="#D7D7D7" transform="translate(350,185)"/>
<path d="M0 0 C0 0.33 0 0.66 0 1 C-0.99902344 1.04898438 -1.99804688 1.09796875 -3.02734375 1.1484375 C-4.31769531 1.22320312 -5.60804688 1.29796875 -6.9375 1.375 C-8.22527344 1.44460937 -9.51304687 1.51421875 -10.83984375 1.5859375 C-11.88269531 1.72257812 -12.92554688 1.85921875 -14 2 C-14.33 2.66 -14.66 3.32 -15 4 C-17.25 4.44921875 -17.25 4.44921875 -20 4.6875 C-20.9075 4.77386719 -21.815 4.86023438 -22.75 4.94921875 C-23.86375 4.97435547 -23.86375 4.97435547 -25 5 C-25.33 4.67 -25.66 4.34 -26 4 C-28.33944736 4.28730055 -30.6739143 4.61936779 -33 5 C-23.35323629 -1.43117581 -11.09030395 -0.33270912 0 0 Z " fill="#C0C0C0" transform="translate(158,70)"/>
<path d="M0 0 C0.66 0.33 1.32 0.66 2 1 C1.34 1.66 0.68 2.32 0 3 C-0.55981713 7.58169236 -0.55981713 7.58169236 1.2109375 11.62890625 C3.396274 13.3036947 5.27425632 13.82718054 7.9375 14.5 C11.62560854 15.43454334 14.06925605 16.55204682 17 19 C16.67 19.66 16.34 20.32 16 21 C11.65198431 19.41890338 7.33352793 17.77959497 3.0625 16 C2.31097656 15.690625 1.55945313 15.38125 0.78515625 15.0625 C-1 14 -1 14 -2 11 C-2.11632729 9.48233461 -2.17496239 7.9595654 -2.1875 6.4375 C-2.20167969 5.65246094 -2.21585937 4.86742187 -2.23046875 4.05859375 C-2 2 -2 2 0 0 Z " fill="#F0F0F0" transform="translate(383,185)"/>
<path d="M0 0 C-8.28869564 6.91344121 -21.91880531 3.71381008 -32 3 C-32 2.67 -32 2.34 -32 2 C-31.3294458 1.94465088 -30.6588916 1.88930176 -29.96801758 1.83227539 C-26.91592263 1.57865989 -23.86421686 1.32062362 -20.8125 1.0625 C-19.75740234 0.97548828 -18.70230469 0.88847656 -17.61523438 0.79882812 C-16.59365234 0.71181641 -15.57207031 0.62480469 -14.51953125 0.53515625 C-13.58214111 0.456604 -12.64475098 0.37805176 -11.67895508 0.29711914 C-8.98297179 0.04067004 -8.98297179 0.04067004 -6.29956055 -0.56079102 C-3.82906576 -1.03264791 -2.36204029 -0.78734676 0 0 Z " fill="#E3E3E3" transform="translate(177,248)"/>
<path d="M0 0 C0 0.99 0 1.98 0 3 C-3 5.1875 -3 5.1875 -6 7 C-5.67 8.32 -5.34 9.64 -5 11 C-0.78121808 11.19622241 2.17010894 10.80230168 6 9 C6 9.66 6 10.32 6 11 C2.29062704 13.47291531 -0.69865592 13.66549097 -5 13 C-10.54156171 10.17884131 -10.54156171 10.17884131 -11.875 6.75 C-11.91625 6.1725 -11.9575 5.595 -12 5 C-10.948125 4.9175 -9.89625 4.835 -8.8125 4.75 C-4.72952791 3.94679238 -2.9877273 2.80665291 0 0 Z " fill="#313131" transform="translate(371,207)"/>
<path d="M0 0 C1.5 1.0625 1.5 1.0625 3 3 C3.5 6.375 3.5 6.375 3 10 C0.45862841 13.15954305 -1.14622659 14.71540886 -5 16 C-6.56118428 16.06740865 -8.1250252 16.08514456 -9.6875 16.0625 C-10.89986328 16.04896484 -10.89986328 16.04896484 -12.13671875 16.03515625 C-12.75160156 16.02355469 -13.36648438 16.01195312 -14 16 C-14 15.34 -14 14.68 -14 14 C-13.32453125 13.98582031 -12.6490625 13.97164062 -11.953125 13.95703125 C-6.23775781 13.69366048 -6.23775781 13.69366048 -1.375 10.9375 C0.46639412 7.00361256 0.29249264 4.31426647 0 0 Z " fill="#F7F7F7" transform="translate(402,201)"/>
<path d="M0 0 C-0.33 0.99 -0.66 1.98 -1 3 C-3.66201207 4.07305913 -6.19528953 4.94890481 -8.9375 5.75 C-10.0502832 6.09998047 -10.0502832 6.09998047 -11.18554688 6.45703125 C-16.7288167 8.13559165 -16.7288167 8.13559165 -19 7 C-16.34032604 3.66313968 -12.83970913 2.59175655 -8.9375 1.25 C-8.30005859 1.01667969 -7.66261719 0.78335938 -7.00585938 0.54296875 C-2.25687036 -1.12843518 -2.25687036 -1.12843518 0 0 Z " fill="#E9E9E9" transform="translate(194,242)"/>
<path d="M0 0 C3.66193239 3.06406588 7.18020298 6.12978472 10.5 9.5625 C13.73418247 12.8626862 17.17074336 15.42111288 21 18 C20.01 18.33 19.02 18.66 18 19 C11.05574458 14.78164236 4.83154271 8.50503795 0 2 C0 1.34 0 0.68 0 0 Z " fill="#E2E2E2" transform="translate(66,211)"/>
<path d="M0 0 C0.33 0 0.66 0 1 0 C1 10.56 1 21.12 1 32 C-3 32 -3 32 -5.25 30 C-5.8275 29.34 -6.405 28.68 -7 28 C-6.67 27.34 -6.34 26.68 -6 26 C-5.566875 26.474375 -5.13375 26.94875 -4.6875 27.4375 C-2.97690387 29.23686957 -2.97690387 29.23686957 0 30 C0 20.1 0 10.2 0 0 Z " fill="#F9F9F9" transform="translate(336,184)"/>
<path d="M0 0 C0.66 1.32 1.32 2.64 2 4 C7.94 4.33 13.88 4.66 20 5 C20 5.66 20 6.32 20 7 C13.4 7 6.8 7 0 7 C0 4.69 0 2.38 0 0 Z " fill="#222222" transform="translate(271,207)"/>
<path d="M0 0 C5.94 0 11.88 0 18 0 C18 0.33 18 0.66 18 1 C10.08 1.495 10.08 1.495 2 2 C2 4.97 2 7.94 2 11 C1.34 11 0.68 11 0 11 C0 7.37 0 3.74 0 0 Z " fill="#F9F9F9" transform="translate(414,186)"/>
<path d="M0 0 C6.27 1.32 12.54 2.64 19 4 C18.67 4.66 18.34 5.32 18 6 C11.7945858 5.51679152 6.00054754 4.66681876 0 3 C0 2.01 0 1.02 0 0 Z " fill="#E8E8E8" transform="translate(117,245)"/>
<path d="M0 0 C-0.99 0.66 -1.98 1.32 -3 2 C-3.99 1.34 -4.98 0.68 -6 0 C-11.02495979 -0.59895032 -15.57810523 -0.66912695 -20.1875 1.5 C-20.785625 1.995 -21.38375 2.49 -22 3 C-21.02703346 0.34645489 -20.34207577 -0.79877896 -17.875 -2.25 C-10.95303988 -4.05572873 -6.21987576 -3.10993788 0 0 Z " fill="#242424" transform="translate(371,187)"/>
<path d="M0 0 C11.70615034 -0.55353075 11.70615034 -0.55353075 16 3 C16.33 2.01 16.66 1.02 17 0 C17.33 1.65 17.66 3.3 18 5 C14.37471432 5.20140476 12.13498292 4.85776765 9 3 C9 2.34 9 1.68 9 1 C5.7 1.33 2.4 1.66 -1 2 C-0.67 1.34 -0.34 0.68 0 0 Z " fill="#E9E9E9" transform="translate(448,186)"/>
<path d="M0 0 C0.33 0.66 0.66 1.32 1 2 C0.69320313 2.58265625 0.38640625 3.1653125 0.0703125 3.765625 C-1.27582613 6.57581222 -1.19879158 8.6507535 -1.125 11.75 C-1.10695313 12.73484375 -1.08890625 13.7196875 -1.0703125 14.734375 C-1.04710937 15.48203125 -1.02390625 16.2296875 -1 17 C-1.66 17 -2.32 17 -3 17 C-4.72053028 13.55893945 -4.38418032 9.77017635 -4 6 C-2.8410416 3.58130422 -1.87677904 1.87677904 0 0 Z " fill="#111111" transform="translate(348,189)"/>
<path d="M0 0 C0.66 0.33 1.32 0.66 2 1 C1.49026224 5.92746499 0.91479324 10.38196924 -1 15 C-1.99 15.495 -1.99 15.495 -3 16 C-3.45496035 10.23716896 -1.79099852 5.39431697 0 0 Z " fill="#E3E3E3" transform="translate(81,118)"/>
<path d="M0 0 C1.63474626 3.26949252 1.01418775 6.77156225 0.9375 10.37109375 C0.87393186 13.11111337 0.87393186 13.11111337 2 16 C1.01 16 0.02 16 -1 16 C-2.36271133 13.27457733 -2.16923601 11.03912726 -2.1875 8 C-2.20167969 6.9275 -2.21585937 5.855 -2.23046875 4.75 C-2 2 -2 2 0 0 Z " fill="#191919" transform="translate(441,191)"/>
<path d="M0 0 C4.95 0.33 9.9 0.66 15 1 C15 1.66 15 2.32 15 3 C9.72 3 4.44 3 -1 3 C-0.67 2.01 -0.34 1.02 0 0 Z " fill="#4C4C4C" transform="translate(415,197)"/>
<path d="M0 0 C0 0.99 0 1.98 0 3 C-0.66 3.66 -1.32 4.32 -2 5 C-2 5.99 -2 6.98 -2 8 C-0.35 8 1.3 8 3 8 C2.34 8.66 1.68 9.32 1 10 C-2 9.875 -2 9.875 -5 9 C-6.375 6.9375 -6.375 6.9375 -7 5 C-4.69 3.35 -2.38 1.7 0 0 Z " fill="#D7D7D7" transform="translate(371,209)"/>
<path d="M0 0 C3.96 0 7.92 0 12 0 C12 1.65 12 3.3 12 5 C10.1875 5.625 10.1875 5.625 8 6 C7.01 5.34 6.02 4.68 5 4 C6 3 6 3 8.5625 2.9375 C9.7690625 2.9684375 9.7690625 2.9684375 11 3 C11 2.34 11 1.68 11 1 C7.37 1 3.74 1 0 1 C0 0.67 0 0.34 0 0 Z " fill="#DFDFDF" transform="translate(419,197)"/>
<path d="M0 0 C0.33 0 0.66 0 1 0 C1 6.93 1 13.86 1 21 C-0.32 21 -1.64 21 -3 21 C-3 20.01 -3 19.02 -3 18 C-2.01 18 -1.02 18 0 18 C0 12.06 0 6.12 0 0 Z " fill="#FDFDFD" transform="translate(313,196)"/>
<path d="M0 0 C9.57668161 -0.76681614 9.57668161 -0.76681614 13.06640625 1.11328125 C14.6875 2.5 14.6875 2.5 17 5 C16.67 5.66 16.34 6.32 16 7 C12.535 5.02 12.535 5.02 9 3 C9 2.34 9 1.68 9 1 C6.03 1 3.06 1 0 1 C0 0.67 0 0.34 0 0 Z " fill="#E8E8E8" transform="translate(354,186)"/>
<path d="M0 0 C1.98 0 3.96 0 6 0 C7.35439668 2.70879335 7.06501451 5.00933268 7 8 C6.01 8.495 6.01 8.495 5 9 C4.731875 8.071875 4.46375 7.14375 4.1875 6.1875 C3.08851629 3.23759634 2.37581439 1.94384814 0 0 Z " fill="#191919" transform="translate(396,201)"/>
<path d="M0 0 C0 0.66 0 1.32 0 2 C-3.21451269 3.60725635 -6.43612536 3.05748185 -10 3 C-10 2.34 -10 1.68 -10 1 C-6.59437148 0.22157062 -3.49234244 -0.09978121 0 0 Z " fill="#FBFBFB" transform="translate(461,214)"/>
<path d="M0 0 C1.98146451 0.44829514 3.96014211 0.90892498 5.9375 1.375 C7.03964844 1.63023437 8.14179688 1.88546875 9.27734375 2.1484375 C10.17582031 2.42945313 11.07429688 2.71046875 12 3 C12.33 3.66 12.66 4.32 13 5 C11.02 5 9.04 5 7 5 C7 4.34 7 3.68 7 3 C4.69 2.67 2.38 2.34 0 2 C0 1.34 0 0.68 0 0 Z " fill="#7D7D7D" transform="translate(389,196)"/>
<path d="M0 0 C-0.33 0.66 -0.66 1.32 -1 2 C-3.28515625 2.6328125 -3.28515625 2.6328125 -6.0625 3.125 C-6.98160156 3.29257813 -7.90070313 3.46015625 -8.84765625 3.6328125 C-9.91306641 3.81457031 -9.91306641 3.81457031 -11 4 C-8.54493529 0.31740294 -4.36534139 -2.1826707 0 0 Z " fill="#FDFDFD" transform="translate(134,74)"/>
<path d="M0 0 C-3.63195496 2.42130331 -5.38349348 2.21022785 -9.6875 2.125 C-10.86699219 2.10695312 -12.04648438 2.08890625 -13.26171875 2.0703125 C-14.16535156 2.04710937 -15.06898438 2.02390625 -16 2 C-16 1.67 -16 1.34 -16 1 C-14.0852312 0.63571223 -12.16807707 0.28394694 -10.25 -0.0625 C-9.18265625 -0.25972656 -8.1153125 -0.45695313 -7.015625 -0.66015625 C-4.25228095 -0.97156937 -2.59053383 -0.8991416 0 0 Z " fill="#B5B5B5" transform="translate(177,248)"/>
<path d="M0 0 C0.99 0 1.98 0 3 0 C2.375 2.375 2.375 2.375 1 5 C-2.125 6.3125 -2.125 6.3125 -5 7 C-4.24172908 5.82512964 -3.46792245 4.66027408 -2.6875 3.5 C-2.25824219 2.8503125 -1.82898438 2.200625 -1.38671875 1.53125 C-0.70029297 0.77328125 -0.70029297 0.77328125 0 0 Z " fill="#707070" transform="translate(372,203)"/>
<path d="M0 0 C0.99 0.33 1.98 0.66 3 1 C-0.625 5.875 -0.625 5.875 -4 7 C-2.92598892 4.08482708 -2.22189824 2.22189824 0 0 Z " fill="#6A6A6A" transform="translate(443,186)"/>
<path d="M0 0 C0.66 0.33 1.32 0.66 2 1 C0 4 0 4 -2.5 4.8125 C-3.7375 4.9053125 -3.7375 4.9053125 -5 5 C-5.66 4.34 -6.32 3.68 -7 3 C-4.69631264 1.93347808 -2.35981813 0.93578995 0 0 Z " fill="#DDDDDD" transform="translate(123,75)"/>
<path d="M0 0 C2.64 0 5.28 0 8 0 C7.01 1.485 7.01 1.485 6 3 C3.69 2.67 1.38 2.34 -1 2 C-0.67 1.34 -0.34 0.68 0 0 Z " fill="#FBFBFB" transform="translate(417,200)"/>
<path d="M0 0 C0 0.66 0 1.32 0 2 C-2.375 3.6875 -2.375 3.6875 -5 5 C-5.66 4.67 -6.32 4.34 -7 4 C-7 3.34 -7 2.68 -7 2 C-4 0 -4 0 0 0 Z " fill="#EFEFEF" transform="translate(118,79)"/>
<path d="M0 0 C1.65 1.65 3.3 3.3 5 5 C4.01 5.66 3.02 6.32 2 7 C0.4375 5.75 0.4375 5.75 -1 4 C-0.6875 1.8125 -0.6875 1.8125 0 0 Z " fill="#212121" transform="translate(347,204)"/>
<path d="M0 0 C1.37478516 0.01740234 1.37478516 0.01740234 2.77734375 0.03515625 C3.69644531 0.04417969 4.61554688 0.05320313 5.5625 0.0625 C6.27277344 0.07410156 6.98304688 0.08570313 7.71484375 0.09765625 C7.71484375 0.42765625 7.71484375 0.75765625 7.71484375 1.09765625 C4.73632812 1.390625 4.73632812 1.390625 1.7578125 1.68359375 C-0.58503767 2.02431016 -0.58503767 2.02431016 -3.28515625 4.09765625 C-3.28515625 0.14039129 -3.28515625 0.14039129 0 0 Z " fill="#525252" transform="translate(387.28515625,184.90234375)"/>
</svg>
