<?xml version="1.0" standalone="no"?>
<!DOCTYPE svg PUBLIC "-//W3C//DTD SVG 20010904//EN"
 "http://www.w3.org/TR/2001/REC-SVG-20010904/DTD/svg10.dtd">
<svg version="1.0" xmlns="http://www.w3.org/2000/svg"
 width="500.000000pt" height="302.000000pt" viewBox="0 0 500.000000 302.000000"
 preserveAspectRatio="xMidYMid meet">

<g transform="translate(0.000000,302.000000) scale(0.100000,-0.100000)"
fill="#000000" stroke="none">
<path d="M0 1510 l0 -1510 2500 0 2500 0 0 1510 0 1510 -2500 0 -2500 0 0
-1510z m1621 1150 c185 -21 388 -103 521 -208 264 -212 399 -454 430 -771 11
-113 5 -274 -11 -300 -9 -15 -347 -19 -362 -4 -5 5 -1 31 7 58 12 38 15 78 11
170 -9 208 -68 346 -212 491 -131 133 -283 201 -470 211 -126 7 -229 -16 -360
-81 -109 -55 -197 -131 -261 -227 -184 -277 -174 -598 26 -862 87 -115 256
-220 405 -252 89 -19 230 -19 319 0 70 15 217 78 237 101 20 25 42 4 35 -35
-3 -20 -6 -109 -7 -198 l-1 -162 -93 -30 c-134 -44 -218 -54 -375 -48 -283 12
-522 117 -720 316 -186 187 -289 411 -310 675 -25 307 72 583 286 815 234 253
570 379 905 341z m948 -1434 c8 -9 11 -85 9 -252 l-3 -239 -255 0 -255 0 -3
239 c-2 167 1 243 9 252 9 11 60 14 249 14 189 0 240 -3 249 -14z m1753 -44
c23 -23 -5 -33 -85 -31 l-82 2 0 -49 0 -49 65 -3 c85 -3 96 -7 79 -28 -9 -11
-29 -15 -68 -14 -31 1 -62 1 -68 1 -9 -1 -13 -18 -13 -51 l0 -49 88 -3 c69 -2
87 -6 87 -18 0 -12 -19 -16 -99 -18 -57 -2 -104 2 -109 7 -6 6 -12 72 -14 149
-4 117 -2 140 11 151 9 7 21 11 28 9 7 -3 22 -2 33 2 27 11 135 4 147 -8z
m-1584 -131 c2 -92 6 -133 15 -136 7 -3 46 -6 87 -7 63 -3 75 -6 78 -21 3 -16
-5 -17 -105 -15 l-108 3 -3 145 c-3 151 0 174 21 168 8 -3 13 -42 15 -137z
m260 122 c5 -10 9 -81 8 -158 -1 -133 -2 -140 -21 -140 -19 0 -20 8 -23 145
-1 79 0 150 2 157 7 18 24 16 34 -4z m224 -99 l93 -115 5 112 c3 74 9 114 17
116 23 8 30 -35 25 -174 -3 -113 -7 -143 -18 -143 -8 0 -56 53 -107 117 l-92
116 -5 -114 c-4 -92 -8 -114 -20 -114 -13 0 -15 24 -18 145 -3 146 0 170 17
170 5 0 51 -52 103 -116z m451 102 c73 -30 113 -122 87 -200 -10 -33 -61 -88
-92 -99 -10 -4 -9 -9 5 -23 15 -16 21 -17 48 -6 19 7 38 8 47 3 12 -7 9 -12
-16 -25 -46 -24 -84 -20 -130 14 -23 17 -50 30 -60 30 -28 0 -83 40 -110 80
-48 70 -12 183 70 223 40 20 108 22 151 3z m339 -4 c6 -6 8 -18 5 -26 -6 -14
-10 -14 -43 0 -68 28 -136 -4 -119 -56 6 -20 9 -21 85 -40 90 -23 125 -90 77
-146 -19 -22 -34 -28 -78 -32 -67 -5 -133 18 -127 45 5 20 6 20 63 -1 47 -17
103 -9 118 16 19 29 -14 62 -82 81 -74 21 -101 45 -101 90 0 57 53 89 138 84
29 -2 58 -9 64 -15z m608 3 c30 -15 39 -38 20 -50 -5 -3 -20 1 -32 9 -28 20
-100 21 -137 2 -34 -18 -51 -54 -51 -109 0 -49 19 -81 60 -102 37 -19 109 -19
136 0 12 8 24 11 28 8 27 -27 -37 -63 -114 -63 -83 0 -150 63 -157 147 -4 40
0 55 25 94 16 25 44 53 63 62 43 21 121 22 159 2z m-1555 -580 l0 -160 -160 0
-160 0 -3 144 c-2 95 1 148 9 157 8 10 48 14 147 17 76 1 144 3 152 2 13 0 15
-25 15 -160z"/>
<path d="M3517 1130 c-36 -29 -52 -83 -38 -129 13 -46 45 -76 94 -89 39 -11
53 -9 95 11 68 33 68 164 0 211 -33 24 -119 21 -151 -4z"/>
</g>
</svg>
