<svg width="500" height="302" xmlns="http://www.w3.org/2000/svg" preserveAspectRatio="xMidYMid meet" version="1.0">

 <g>
  <title>Layer 1</title>
  <path id="svg_2" d="m0,151l0,151l250,0l250,0l0,-151l0,-151l-250,0l-250,0l0,151zm162.1,-115c18.5,2.1 38.8,10.3 52.1,20.8c26.4,21.2 39.9,45.4 43,77.1c1.1,11.3 0.5,27.4 -1.1,30c-0.9,1.5 -34.7,1.9 -36.2,0.4c-0.5,-0.5 -0.1,-3.1 0.7,-5.8c1.2,-3.8 1.5,-7.8 1.1,-17c-0.9,-20.8 -6.8,-34.6 -21.2,-49.1c-13.1,-13.3 -28.3,-20.1 -47,-21.1c-12.6,-0.7 -22.9,1.6 -36,8.1c-10.9,5.5 -19.7,13.1 -26.1,22.7c-18.4,27.7 -17.4,59.8 2.6,86.2c8.7,11.5 25.6,22 40.5,25.2c8.9,1.9 23,1.9 31.9,0c7,-1.5 21.7,-7.8 23.7,-10.1c2,-2.5 4.2,-0.4 3.5,3.5c-0.3,2 -0.6,10.9 -0.7,19.8l-0.1,16.2l-9.3,3c-13.4,4.4 -21.8,5.4 -37.5,4.8c-28.3,-1.2 -52.2,-11.7 -72,-31.6c-18.6,-18.7 -28.9,-41.1 -31,-67.5c-2.5,-30.7 7.2,-58.3 28.6,-81.5c23.4,-25.3 57,-37.9 90.5,-34.1zm94.8,143.4c0.8,0.9 1.1,8.5 0.9,25.2l-0.3,23.9l-25.5,0l-25.5,0l-0.3,-23.9c-0.2,-16.7 0.1,-24.3 0.9,-25.2c0.9,-1.1 6,-1.4 24.9,-1.4c18.9,0 24,0.3 24.9,1.4zm175.3,4.4c2.3,2.3 -0.5,3.3 -8.5,3.1l-8.2,-0.2l0,4.9l0,4.9l6.5,0.3c8.5,0.3 9.6,0.7 7.9,2.8c-0.9,1.1 -2.9,1.5 -6.8,1.4c-3.1,-0.1 -6.2,-0.1 -6.8,-0.1c-0.9,0.1 -1.3,1.8 -1.3,5.1l0,4.9l8.8,0.3c6.9,0.2 8.7,0.6 8.7,1.8c0,1.2 -1.9,1.6 -9.9,1.8c-5.7,0.2 -10.4,-0.2 -10.9,-0.7c-0.6,-0.6 -1.2,-7.2 -1.4,-14.9c-0.4,-11.7 -0.2,-14 1.1,-15.1c0.9,-0.7 2.1,-1.1 2.8,-0.9c0.7,0.3 2.2,0.2 3.3,-0.2c2.7,-1.1 13.5,-0.4 14.7,0.8zm-158.4,13.1c0.2,9.2 0.6,13.3 1.5,13.6c0.7,0.3 4.6,0.6 8.7,0.7c6.3,0.3 7.5,0.6 7.8,2.1c0.3,1.6 -0.5,1.7 -10.5,1.5l-10.8,-0.3l-0.3,-14.5c-0.3,-15.1 0,-17.4 2.1,-16.8c0.8,0.3 1.3,4.2 1.5,13.7zm26,-12.2c0.5,1 0.9,8.1 0.8,15.8c-0.1,13.3 -0.2,14 -2.1,14c-1.9,0 -2,-0.8 -2.3,-14.5c-0.1,-7.9 0,-15 0.2,-15.7c0.7,-1.8 2.4,-1.6 3.4,0.4zm22.4,9.9l9.3,11.5l0.5,-11.2c0.3,-7.4 0.9,-11.4 1.7,-11.6c2.3,-0.8 3,3.5 2.5,17.4c-0.3,11.3 -0.7,14.3 -1.8,14.3c-0.8,0 -5.6,-5.3 -10.7,-11.7l-9.2,-11.6l-0.5,11.4c-0.4,9.2 -0.8,11.4 -2,11.4c-1.3,0 -1.5,-2.4 -1.8,-14.5c-0.3,-14.6 0,-17 1.7,-17c0.5,0 5.1,5.2 10.3,11.6zm45.1,-10.2c7.3,3 11.3,12.2 8.7,20c-1,3.3 -6.1,8.8 -9.2,9.9c-1,0.4 -0.9,0.9 0.5,2.3c1.5,1.6 2.1,1.7 4.8,0.6c1.9,-0.7 3.8,-0.8 4.7,-0.3c1.2,0.7 0.9,1.2 -1.6,2.5c-4.6,2.4 -8.4,2 -13,-1.4c-2.3,-1.7 -5,-3 -6,-3c-2.8,0 -8.3,-4 -11,-8c-4.8,-7 -1.2,-18.3 7,-22.3c4,-2 10.8,-2.2 15.1,-0.3zm33.9,0.4c0.6,0.6 0.8,1.8 0.5,2.6c-0.6,1.4 -1,1.4 -4.3,0c-6.8,-2.8 -13.6,0.4 -11.9,5.6c0.6,2 0.9,2.1 8.5,4c9,2.3 12.5,9 7.7,14.6c-1.9,2.2 -3.4,2.8 -7.8,3.2c-6.7,0.5 -13.3,-1.8 -12.7,-4.5c0.5,-2 0.6,-2 6.3,0.1c4.7,1.7 10.3,0.9 11.8,-1.6c1.9,-2.9 -1.4,-6.2 -8.2,-8.1c-7.4,-2.1 -10.1,-4.5 -10.1,-9c0,-5.7 5.3,-8.9 13.8,-8.4c2.9,0.2 5.8,0.9 6.4,1.5zm60.8,-0.3c3,1.5 3.9,3.8 2,5c-0.5,0.3 -2,-0.1 -3.2,-0.9c-2.8,-2 -10,-2.1 -13.7,-0.2c-3.4,1.8 -5.1,5.4 -5.1,10.9c0,4.9 1.9,8.1 6,10.2c3.7,1.9 10.9,1.9 13.6,0c1.2,-0.8 2.4,-1.1 2.8,-0.8c2.7,2.7 -3.7,6.3 -11.4,6.3c-8.3,0 -15,-6.3 -15.7,-14.7c-0.4,-4 0,-5.5 2.5,-9.4c1.6,-2.5 4.4,-5.3 6.3,-6.2c4.3,-2.1 12.1,-2.2 15.9,-0.2zm-155.5,58l0,16l-16,0l-16,0l-0.3,-14.4c-0.2,-9.5 0.1,-14.8 0.9,-15.7c0.8,-1 4.8,-1.4 14.7,-1.7c7.6,-0.1 14.4,-0.3 15.2,-0.2c1.3,0 1.5,2.5 1.5,16z"/>
  <path id="svg_3" d="m351.70001,189c-3.6,2.9 -5.2,8.3 -3.8,12.9c1.3,4.6 4.5,7.6 9.4,8.9c3.9,1.1 5.3,0.9 9.5,-1.1c6.8,-3.3 6.8,-16.4 0,-21.1c-3.3,-2.4 -11.9,-2.1 -15.1,0.4z"/>
 </g>
</svg>