<?xml version="1.0" encoding="UTF-8"?>
<svg version="1.1" xmlns="http://www.w3.org/2000/svg" width="382" height="228">
<path d="M0 0 C3.5130494 2.82981483 6.76826321 5.85575524 10 9 C10.71027344 9.64839844 11.42054688 10.29679687 12.15234375 10.96484375 C21.66639997 19.89454335 26.73034449 30.88970438 31 43 C31.51433594 44.37671875 31.51433594 44.37671875 32.0390625 45.78125 C34.27958752 52.90067529 34.27402822 60.0382775 34.3125 67.4375 C34.32095947 69.02099243 34.32095947 69.02099243 34.32958984 70.63647461 C34.27974869 75.90823218 34.01620925 78.95947687 32 84 C22.76 84 13.52 84 4 84 C2.61829021 81.23658042 3.35719805 79.75509911 4 76.75 C6.64070789 61.62923427 3.05004776 47.79110361 -4.890625 34.828125 C-13.27999513 23.58015467 -26.36381058 17.14520541 -40 15 C-56.60999102 13.62836047 -70.93097704 18.07073463 -83.6796875 28.78125 C-92.8212793 37.52270478 -98.38790755 49.92899063 -99.23828125 62.53125 C-99.5420733 78.77612997 -95.08919584 92.82868531 -83.6875 104.875 C-72.80859152 115.00300739 -59.72182109 119.65836261 -44.9074707 119.47485352 C-35.34834656 119.05550198 -26.86210071 116.00041025 -18.8046875 110.953125 C-17 110 -17 110 -14 110 C-14 120.23 -14 130.46 -14 141 C-32.33522865 150.16761433 -53.77973744 150.26019445 -73 144 C-96.17156551 134.67547748 -112.93275824 120.01499489 -123 97 C-129.97954661 78.88429782 -130.96266413 55.39234524 -123.57421875 37.20703125 C-123.05472656 36.14871094 -122.53523438 35.09039062 -122 34 C-121.71205566 33.4126709 -121.42411133 32.8253418 -121.12744141 32.22021484 C-112.97840605 15.98699058 -101.57271707 4.15912979 -86 -5 C-85.22011719 -5.46535156 -84.44023438 -5.93070313 -83.63671875 -6.41015625 C-57.89184609 -20.55901904 -23.63367634 -16.17723524 0 0 Z " fill="#FEFEFE" transform="translate(178,46)"/>
<path d="M0 0 C12.87 0 25.74 0 39 0 C39 12.87 39 25.74 39 39 C25.8 39 12.6 39 -1 39 C-1.020625 33.864375 -1.04125 28.72875 -1.0625 23.4375 C-1.071604 21.83060303 -1.08070801 20.22370605 -1.09008789 18.56811523 C-1.09258545 17.28622314 -1.09508301 16.00433105 -1.09765625 14.68359375 C-1.10289307 13.37962646 -1.10812988 12.07565918 -1.11352539 10.73217773 C-1 7 -1 7 0 0 Z " fill="#FEFEFE" transform="translate(173,138)"/>
<path d="M0 0 C1.14227051 0.06465454 1.14227051 0.06465454 2.30761719 0.13061523 C3.26313477 0.19192627 4.21865234 0.2532373 5.203125 0.31640625 C8.255625 0.50203125 11.308125 0.68765625 14.453125 0.87890625 C14.453125 8.79890625 14.453125 16.71890625 14.453125 24.87890625 C6.533125 25.20890625 -1.386875 25.53890625 -9.546875 25.87890625 C-9.216875 17.62890625 -8.886875 9.37890625 -8.546875 0.87890625 C-5.1926111 0.04034027 -3.31893401 -0.20182707 0 0 Z " fill="#FEFEFE" transform="translate(232.546875,173.12109375)"/>
<path d="M0 0 C2.46445253 2.15639596 2.90597063 3.69776276 3.875 6.8125 C4.03519557 10.89748698 2.86838929 13.40162063 1 17 C0.34 17.66 -0.32 18.32 -1 19 C1.21081851 19.10540926 1.21081851 19.10540926 4 18 C4 18.99 4 19.98 4 21 C0.08997235 22.21645305 -1.95168818 22.42136595 -5.80859375 20.87109375 C-14.43007652 16.30273834 -14.43007652 16.30273834 -17 12 C-17.52795493 7.8517827 -17.47613145 5.76521126 -15.25 2.1875 C-10.21042814 -2.71208375 -6.35998924 -2.34124841 0 0 Z M-14 4 C-15.19308162 7.65878362 -15.32667744 9.29997692 -13.6875 12.8125 C-12.18421412 15.08915626 -12.18421412 15.08915626 -10 16 C-6.16385043 16.35519903 -3.85370366 16.54724594 -0.5625 14.4375 C1.60396028 11.05782196 1.56288002 8.94016013 1 5 C-0.41666667 2.41666667 -0.41666667 2.41666667 -3 1 C-7.58722309 0.42659711 -10.85840526 0.37508299 -14 4 Z " fill="#FAFBFB" transform="translate(283,148)"/>
<path d="M0 0 C4.08332902 1.55466197 6.08208993 4.25087844 8.75 7.625 C9.54921875 8.62789062 10.3484375 9.63078125 11.171875 10.6640625 C12.07679688 11.82035156 12.07679688 11.82035156 13 13 C13.33 8.71 13.66 4.42 14 0 C14.66 0 15.32 0 16 0 C16.19476139 2.60380996 16.38108614 5.20775533 16.5625 7.8125 C16.61857422 8.55048828 16.67464844 9.28847656 16.73242188 10.04882812 C16.95769724 13.36788516 17.06255812 15.81232564 16 19 C11.91667098 17.44533803 9.91791007 14.74912156 7.25 11.375 C6.45078125 10.37210938 5.6515625 9.36921875 4.828125 8.3359375 C4.22484375 7.56507813 3.6215625 6.79421875 3 6 C2.67 10.29 2.34 14.58 2 19 C1.34 19 0.68 19 0 19 C-0.07347656 18.04287109 -0.07347656 18.04287109 -0.1484375 17.06640625 C-0.22320312 16.24011719 -0.29796875 15.41382813 -0.375 14.5625 C-0.44460937 13.73878906 -0.51421875 12.91507813 -0.5859375 12.06640625 C-0.79089844 11.04353516 -0.79089844 11.04353516 -1 10 C-1.66 9.67 -2.32 9.34 -3 9 C-3 7.68 -3 6.36 -3 5 C-2.34 5 -1.68 5 -1 5 C-0.67 3.35 -0.34 1.7 0 0 Z " fill="#F7F8F8" transform="translate(246,147)"/>
<path d="M0 0 C-1 2 -1 2 -3.44921875 2.82421875 C-4.51785156 3.10910156 -5.58648437 3.39398438 -6.6875 3.6875 C-23.94557878 8.80240809 -35.79220074 18.38147104 -48 31 C-48.33 30.01 -48.66 29.02 -49 28 C-37.91215969 14.27629067 -18.65883134 -0.59234385 0 0 Z " fill="#F5F3F3" transform="translate(117,33)"/>
<path d="M0 0 C4.29 0 8.58 0 13 0 C13 0.66 13 1.32 13 2 C9.37 2 5.74 2 2 2 C2 3.98 2 5.96 2 8 C5.3 8 8.6 8 12 8 C12 8.66 12 9.32 12 10 C12.66 10.33 13.32 10.66 14 11 C9.83861737 11.08159574 6.0527516 10.98248524 2 10 C2 12.31 2 14.62 2 17 C5.96 17 9.92 17 14 17 C14 17.66 14 18.32 14 19 C9.38 19 4.76 19 0 19 C0 12.73 0 6.46 0 0 Z " fill="#F5F8F7" transform="translate(307,147)"/>
<path d="M0 0 C0 0.66 0 1.32 0 2 C-2.97 2 -5.94 2 -9 2 C-9.33 2.66 -9.66 3.32 -10 4 C-9.19646447 6.13945096 -9.19646447 6.13945096 -7.22265625 6.78125 C-6.50980469 7.0184375 -5.79695313 7.255625 -5.0625 7.5 C-2.29544796 8.42402464 -1.10862631 8.89137369 1 11 C0.625 14.125 0.625 14.125 0 17 C-3.85972303 18.38950029 -6.30983959 19.14058823 -10.375 18.3125 C-13 17 -13 17 -14 14 C-13.484375 14.165 -12.96875 14.33 -12.4375 14.5 C-9.26636124 15.15049 -6.22781666 15.0620734 -3 15 C-2.67 13.68 -2.34 12.36 -2 11 C-3.258125 10.731875 -4.51625 10.46375 -5.8125 10.1875 C-8.20131148 9.57335521 -9.94355735 9.03420767 -12.0625 7.75 C-13.51910663 5.03100096 -12.70814974 2.89697621 -12 0 C-7.22144261 -2.04795317 -4.77855739 -2.04795317 0 0 Z " fill="#F9FBFA" transform="translate(302,148)"/>
<path d="M0 0 C1.22589844 0.01353516 1.22589844 0.01353516 2.4765625 0.02734375 C3.41628906 0.04474609 3.41628906 0.04474609 4.375 0.0625 C5.035 1.3825 5.695 2.7025 6.375 4.0625 C5.385 3.7325 4.395 3.4025 3.375 3.0625 C-1.95795432 2.719009 -1.95795432 2.719009 -6.625 5.0625 C-7.52062115 8.23162098 -7.91415213 10.23952854 -6.8125 13.375 C-5.71812675 15.21347822 -5.71812675 15.21347822 -3.625 16.0625 C0.04829964 16.19607453 2.87352959 16.2296568 6.375 15.0625 C5.75 17 5.75 17 4.375 19.0625 C0.68155549 20.32162881 -1.1432168 20.24198786 -4.8125 18.875 C-7.63887755 17.05355669 -9.12938932 16.05372136 -10.625 13.0625 C-11.16546356 8.81600057 -11.10876179 6.80426808 -8.75 3.1875 C-5.7202549 0.1577549 -4.16072533 -0.05943893 0 0 Z " fill="#FBFBFB" transform="translate(333.625,146.9375)"/>
<path d="M0 0 C0.66 0 1.32 0 2 0 C2.33 5.28 2.66 10.56 3 16 C6.63 16.33 10.26 16.66 14 17 C13.67 17.66 13.34 18.32 13 19 C8.38 19 3.76 19 -1 19 C-1.09088753 12.54698539 -0.82574651 6.39953542 0 0 Z " fill="#F0F3F2" transform="translate(222,147)"/>
<path d="M0 0 C5.21729199 0.56797891 9.20586992 2.27261994 13.8125 4.625 C14.86763794 5.15806763 14.86763794 5.15806763 15.9440918 5.7019043 C22.63550489 9.17292542 28.95067476 13.32921934 34 19 C34 19.66 34 20.32 34 21 C31.23873659 19.73243727 29.19594428 18.39979079 27 16.3125 C19.14095503 9.44423206 9.8773661 5.13042508 0 2 C0 1.34 0 0.68 0 0 Z " fill="#F5F6F8" transform="translate(153,35)"/>
<path d="M0 0 C0.85078125 0.144375 1.7015625 0.28875 2.578125 0.4375 C13.42935767 2.09981649 24.03736463 2.20033242 35 2 C35 2.66 35 3.32 35 4 C22.88283773 5.67133273 11.7609786 5.61876265 0 2 C0 1.34 0 0.68 0 0 Z " fill="#F6F5F4" transform="translate(109,189)"/>
<path d="M0 0 C3 1 3 1 4.53515625 3.44140625 C7.38115167 9.25713602 9.77506591 14.63034272 11 21 C10.34 21.33 9.68 21.66 9 22 C8.68546875 21.14277344 8.3709375 20.28554687 8.046875 19.40234375 C5.75065507 13.2675634 3.36632505 7.61054175 0 2 C0 1.34 0 0.68 0 0 Z " fill="#F7F7F7" transform="translate(198,70)"/>
<path d="M0 0 C0.66 0 1.32 0 2 0 C2.33 6.27 2.66 12.54 3 19 C2.01 19 1.02 19 0 19 C-1.31909709 12.5510809 -0.69508823 6.51244208 0 0 Z " fill="#EEF2EF" transform="translate(238,147)"/>
<path d="M0 0 C0.33 0 0.66 0 1 0 C1 2.97 1 5.94 1 9 C1.639375 8.649375 2.27875 8.29875 2.9375 7.9375 C7.1430267 6.65009387 10.71464763 7.3091153 15 8 C14.67 8.66 14.34 9.32 14 10 C9.38 10 4.76 10 0 10 C0 6.7 0 3.4 0 0 Z " fill="#FBFCFB" transform="translate(221,156)"/>
<path d="M0 0 C5.54050113 0.56825653 10.03715966 2.62886517 15 5 C15 5.66 15 6.32 15 7 C10 5.33333333 5 3.66666667 0 2 C0 1.34 0 0.68 0 0 Z " fill="#EEEDF1" transform="translate(153,35)"/>
<path d="M0 0 C0.66 0 1.32 0 2 0 C2 4.95 2 9.9 2 15 C1.34 14.67 0.68 14.34 0 14 C-1.32015518 9.07942161 -0.76761645 4.94686159 0 0 Z " fill="#EDF2F0" transform="translate(260,147)"/>
<path d="M0 0 C3.3 0 6.6 0 10 0 C10 0.66 10 1.32 10 2 C10.66 2.33 11.32 2.66 12 3 C7.71 2.67 3.42 2.34 -1 2 C-0.67 1.34 -0.34 0.68 0 0 Z " fill="#FDFEFE" transform="translate(309,155)"/>
<path d="M0 0 C4.62 1.65 9.24 3.3 14 5 C14 5.33 14 5.66 14 6 C7.88225104 6.49940808 4.97504047 5.24900602 0 2 C0 1.34 0 0.68 0 0 Z " fill="#F5F4F5" transform="translate(94,183)"/>
<path d="M0 0 C0.33 0.99 0.66 1.98 1 3 C0.67 3.66 0.34 4.32 0 5 C-0.66 4.67 -1.32 4.34 -2 4 C-1.34 2.68 -0.68 1.36 0 0 Z " fill="#FEFEFE" transform="translate(287,159)"/>
<path d="M0 0 C1.98 0.99 1.98 0.99 4 2 C2.68 1.67 1.36 1.34 0 1 C0 0.67 0 0.34 0 0 Z " fill="#FFFFFF" transform="translate(290,157)"/>
<path d="" fill="#FFFFFF" transform="translate(0,0)"/>
<path d="" fill="#FFFFFF" transform="translate(0,0)"/>
<path d="" fill="#FFFFFF" transform="translate(0,0)"/>
<path d="" fill="#FFFFFF" transform="translate(0,0)"/>
<path d="" fill="#FFFFFF" transform="translate(0,0)"/>
<path d="" fill="#FFFFFF" transform="translate(0,0)"/>
<path d="" fill="#FFFFFF" transform="translate(0,0)"/>
<path d="" fill="#FFFFFF" transform="translate(0,0)"/>
<path d="" fill="#FFFFFF" transform="translate(0,0)"/>
<path d="" fill="#FFFFFF" transform="translate(0,0)"/>
<path d="" fill="#FFFFFF" transform="translate(0,0)"/>
</svg>
