<?xml version="1.0" standalone="no"?>
<!DOCTYPE svg PUBLIC "-//W3C//DTD SVG 20010904//EN"
 "http://www.w3.org/TR/2001/REC-SVG-20010904/DTD/svg10.dtd">
<svg version="1.0" xmlns="http://www.w3.org/2000/svg"
 width="1200.000000pt" height="630.000000pt" viewBox="0 0 1200.000000 630.000000"
 preserveAspectRatio="xMidYMid meet">

<g transform="translate(0.000000,630.000000) scale(0.100000,-0.100000)"
fill="#000000" stroke="none">
<path d="M0 3150 l0 -3150 6000 0 6000 0 0 3150 0 3150 -6000 0 -6000 0 0
-3150z m4832 1179 c137 -29 236 -113 278 -235 22 -65 24 -86 29 -399 l6 -330
28 -59 c15 -32 27 -67 27 -77 0 -19 -56 -66 -114 -96 -26 -14 -31 -13 -55 4
-25 18 -84 98 -93 125 -3 8 -24 -5 -58 -34 -101 -88 -205 -128 -336 -128 -157
0 -272 67 -330 192 -25 55 -29 75 -29 158 0 88 3 101 33 162 91 186 320 256
625 192 38 -8 71 -14 74 -14 9 0 -5 179 -18 223 -15 56 -62 103 -121 123 -39
13 -75 15 -162 12 -95 -4 -126 -10 -219 -42 -133 -46 -139 -43 -135 53 3 62 5
67 36 88 44 29 123 58 209 77 82 17 252 20 325 5z m2700 0 c92 -18 174 -49
197 -73 19 -20 22 -33 19 -92 -3 -67 -4 -69 -28 -68 -14 1 -59 14 -100 30 -65
24 -90 28 -190 28 -98 1 -122 -2 -162 -21 -107 -49 -118 -173 -20 -238 21 -14
110 -49 198 -79 240 -80 291 -112 341 -214 24 -48 28 -69 28 -137 -1 -179
-113 -306 -315 -356 -130 -32 -371 -4 -490 56 -56 29 -63 42 -58 130 3 57 4
60 28 59 14 -1 66 -17 115 -35 84 -31 98 -33 220 -33 103 -1 140 3 178 17 65
26 100 73 101 137 2 89 -44 124 -234 185 -190 60 -239 83 -301 145 -74 72
-103 145 -96 240 10 155 114 267 290 315 63 17 206 19 279 4z m-2059 -41 c18
-18 45 -113 131 -453 60 -236 111 -434 114 -439 3 -5 51 186 107 425 57 240
107 445 113 456 16 29 32 33 122 33 60 0 83 -4 100 -18 25 -20 25 -19 150
-559 47 -199 86 -360 88 -359 1 2 50 187 108 412 58 225 109 426 115 447 17
65 37 77 132 77 84 0 107 -8 107 -40 0 -34 -338 -1102 -355 -1120 -16 -17 -31
-20 -112 -20 -77 0 -96 3 -111 18 -12 12 -35 85 -64 208 -25 104 -72 298 -104
431 -32 133 -60 241 -62 239 -1 -2 -49 -198 -106 -437 -78 -324 -108 -436
-122 -446 -24 -17 -193 -18 -217 0 -19 13 -347 1081 -347 1129 0 34 8 36 108
37 73 1 86 -2 105 -21z m2357 -1438 c88 -14 139 -37 147 -68 12 -49 -5 -196
-32 -282 -47 -146 -106 -250 -191 -333 -46 -46 -76 -58 -89 -37 -4 6 11 60 34
119 88 236 113 378 73 414 -41 38 -176 46 -387 23 -66 -7 -126 -11 -133 -8
-27 9 -6 47 42 79 122 80 357 120 536 93z m-3569 -173 c436 -220 839 -342
1341 -404 198 -24 677 -24 863 0 364 48 778 154 1024 263 70 31 116 31 136 0
27 -42 6 -70 -112 -147 -338 -220 -755 -361 -1223 -415 -193 -22 -535 -15
-732 15 -534 82 -1028 304 -1433 642 -55 47 -101 92 -103 102 -5 25 5 47 21
47 7 0 105 -46 218 -103z"/>
<path d="M4599 3660 c-67 -12 -116 -38 -147 -78 -22 -29 -27 -48 -30 -107 -7
-131 41 -187 164 -193 125 -7 232 40 289 126 28 42 56 205 38 223 -22 22 -239
42 -314 29z"/>
</g>
</svg>
