<?xml version="1.0" standalone="no"?>
<!DOCTYPE svg PUBLIC "-//W3C//DTD SVG 20010904//EN"
 "http://www.w3.org/TR/2001/REC-SVG-20010904/DTD/svg10.dtd">
<svg version="1.0" xmlns="http://www.w3.org/2000/svg"
 width="256.000000pt" height="256.000000pt" viewBox="0 0 256.000000 256.000000"
 preserveAspectRatio="xMidYMid meet">

<g transform="translate(0.000000,256.000000) scale(0.100000,-0.100000)"
fill="#000000" stroke="none">
<path d="M1475 2009 c-93 -33 -171 -61 -172 -63 -1 -1 24 -83 58 -183 l60
-180 181 63 c100 35 183 66 186 68 2 3 -22 84 -54 180 -42 127 -63 176 -74
175 -8 0 -91 -27 -185 -60z"/>
<path d="M665 1738 c-99 -33 -181 -62 -182 -63 -2 -1 25 -85 60 -187 l62 -185
186 64 187 65 -62 184 c-33 101 -63 184 -66 183 -3 0 -86 -28 -185 -61z"/>
<path d="M1865 1239 c-176 -60 -495 -168 -710 -239 -214 -71 -399 -134 -410
-139 -11 -6 -71 -28 -133 -50 -129 -45 -155 -60 -183 -104 -85 -140 1 -305
161 -307 28 -1 193 51 485 153 110 38 369 127 575 197 738 253 745 256 775
334 37 96 -2 203 -87 245 -79 38 -119 30 -473 -90z"/>
</g>
</svg>
